<svg width="138" height="38" viewBox="0 0 138 38" fill="none" xmlns="http://www.w3.org/2000/svg">
<g filter="url(#filter0_d_267_47)">
<mask id="path-1-outside-1_267_47" maskUnits="userSpaceOnUse" x="4.04883" y="4" width="130" height="30" fill="black">
<rect fill="white" x="4.04883" y="4" width="130" height="30"/>
<path d="M20.9288 23.688C20.9288 25.3093 20.4168 26.664 19.3928 27.752C18.3688 28.8187 16.9608 29.5013 15.1688 29.8V32.168H12.3208V29.864C11.0195 29.7147 9.81416 29.3307 8.70483 28.712C7.61683 28.0933 6.73149 27.2827 6.04883 26.28L8.12883 24.232C8.79016 25.0853 9.62216 25.7787 10.6248 26.312C11.6488 26.824 12.6302 27.08 13.5688 27.08C14.7422 27.08 15.6808 26.792 16.3848 26.216C17.1102 25.64 17.4728 24.8827 17.4728 23.944C17.4728 23.304 17.3448 22.76 17.0888 22.312C16.8542 21.864 16.4275 21.4267 15.8088 21C15.1902 20.552 14.2835 20.0293 13.0888 19.432C10.7848 18.3013 9.16349 17.2347 8.22483 16.232C7.28616 15.208 6.81683 14.0027 6.81683 12.616C6.81683 11.1013 7.3075 9.84267 8.28883 8.84C9.2915 7.83733 10.6355 7.21867 12.3208 6.984V5H15.1688V6.984C16.3848 7.15467 17.4515 7.53867 18.3688 8.136C19.3075 8.712 20.0115 9.448 20.4808 10.344L18.2408 12.008C17.7288 11.2827 17.0888 10.728 16.3208 10.344C15.5742 9.93867 14.7635 9.736 13.8888 9.736C12.7795 9.736 11.9048 9.992 11.2648 10.504C10.6248 10.9947 10.3048 11.6773 10.3048 12.552C10.3048 13.0853 10.4328 13.544 10.6888 13.928C10.9662 14.312 11.4462 14.728 12.1288 15.176C12.8328 15.6027 13.9102 16.168 15.3608 16.872C17.3875 17.8533 18.8168 18.8667 19.6488 19.912C20.5022 20.936 20.9288 22.1947 20.9288 23.688Z"/>
<path d="M25.9913 26.92H29.7673V11.24L25.4153 13.768V10.632L30.9833 7.208H33.2553V26.92H36.9993V29.608H25.9913V26.92Z"/>
<path d="M48.7973 29.928C47.24 29.928 45.8747 29.576 44.7013 28.872C43.5493 28.1467 42.6533 27.144 42.0133 25.864C41.3947 24.5627 41.0853 23.0693 41.0853 21.384C41.0853 19.016 41.6613 16.776 42.8133 14.664C43.9867 12.5307 45.576 10.76 47.5813 9.352C49.608 7.944 51.8267 7.09067 54.2373 6.792L54.5573 9.448C52.6373 9.85333 50.888 10.664 49.3093 11.88C47.7307 13.0747 46.5893 14.5253 45.8853 16.232C46.184 15.912 46.6107 15.6453 47.1653 15.432C47.7413 15.1973 48.36 15.08 49.0213 15.08C50.5147 15.08 51.7947 15.4 52.8613 16.04C53.9493 16.6587 54.7707 17.5333 55.3253 18.664C55.9013 19.7947 56.1893 21.0853 56.1893 22.536C56.1893 23.9653 55.88 25.2453 55.2613 26.376C54.664 27.4853 53.8107 28.36 52.7013 29C51.592 29.6187 50.2907 29.928 48.7973 29.928ZM48.7653 27.08C49.9813 27.08 50.952 26.664 51.6773 25.832C52.4027 25 52.7653 23.8907 52.7653 22.504C52.7653 21.1173 52.4027 20.008 51.6773 19.176C50.952 18.344 49.9813 17.928 48.7653 17.928C47.5493 17.928 46.568 18.344 45.8213 19.176C45.096 20.008 44.7333 21.1173 44.7333 22.504C44.7333 23.8907 45.096 25 45.8213 25.832C46.568 26.664 47.5493 27.08 48.7653 27.08Z"/>
<path d="M66.3873 29.928C63.87 29.928 61.9393 28.9573 60.5953 27.016C59.2513 25.0533 58.5793 22.184 58.5793 18.408C58.5793 14.632 59.2513 11.7733 60.5953 9.832C61.9393 7.86933 63.87 6.888 66.3873 6.888C68.9047 6.888 70.8247 7.86933 72.1473 9.832C73.4913 11.7733 74.1633 14.632 74.1633 18.408C74.1633 22.184 73.4913 25.0533 72.1473 27.016C70.8247 28.9573 68.9047 29.928 66.3873 29.928ZM66.3873 27.336C67.7953 27.336 68.862 26.5893 69.5873 25.096C70.3127 23.6027 70.6753 21.3733 70.6753 18.408C70.6753 15.4213 70.3127 13.192 69.5873 11.72C68.862 10.2267 67.7953 9.48 66.3873 9.48C63.5073 9.48 62.0673 12.456 62.0673 18.408C62.0673 21.3733 62.43 23.6027 63.1553 25.096C63.902 26.5893 64.9793 27.336 66.3873 27.336Z"/>
<path d="M86.6653 6.408H89.8333L77.6733 30.984H74.5053L86.6653 6.408Z"/>
<path d="M90.9091 17.704C90.9091 16.0827 90.8557 14.7173 90.7491 13.608H93.5651C93.6504 14.3973 93.6931 15.336 93.6931 16.424H93.7891C94.1944 15.464 94.8451 14.7067 95.7411 14.152C96.6584 13.576 97.6931 13.288 98.8451 13.288C99.9757 13.288 100.946 13.5653 101.757 14.12C102.568 14.6533 103.112 15.4107 103.389 16.392C103.837 15.432 104.509 14.6747 105.405 14.12C106.322 13.5653 107.346 13.288 108.477 13.288C110.248 13.288 111.624 13.864 112.605 15.016C113.608 16.1467 114.109 17.7147 114.109 19.72V29.608H110.941V20.008C110.941 18.6853 110.653 17.6613 110.077 16.936C109.522 16.2107 108.722 15.848 107.677 15.848C106.61 15.848 105.736 16.2427 105.053 17.032C104.392 17.8 104.061 18.8027 104.061 20.04V29.608H100.925V20.136C100.925 17.2773 99.8797 15.848 97.7891 15.848C97.1064 15.848 96.4771 16.04 95.9011 16.424C95.3464 16.808 94.8984 17.3307 94.5571 17.992C94.2157 18.6533 94.0451 19.368 94.0451 20.136V29.608H90.9091V17.704Z"/>
<path d="M125.015 29.928C122.562 29.928 120.631 29.192 119.223 27.72C117.815 26.2267 117.111 24.1893 117.111 21.608C117.111 19.0267 117.815 17 119.223 15.528C120.631 14.0347 122.562 13.288 125.015 13.288C127.469 13.288 129.399 14.0347 130.807 15.528C132.237 17 132.951 19.0267 132.951 21.608C132.951 24.1893 132.237 26.2267 130.807 27.72C129.399 29.192 127.469 29.928 125.015 29.928ZM125.015 27.528C126.487 27.528 127.65 27.0053 128.503 25.96C129.357 24.8933 129.783 23.4427 129.783 21.608C129.783 19.7733 129.357 18.3333 128.503 17.288C127.65 16.2213 126.487 15.688 125.015 15.688C123.522 15.688 122.359 16.2213 121.527 17.288C120.695 18.3333 120.279 19.7733 120.279 21.608C120.279 23.4427 120.695 24.8933 121.527 25.96C122.359 27.0053 123.522 27.528 125.015 27.528Z"/>
</mask>
<path d="M20.9288 23.688C20.9288 25.3093 20.4168 26.664 19.3928 27.752C18.3688 28.8187 16.9608 29.5013 15.1688 29.8V32.168H12.3208V29.864C11.0195 29.7147 9.81416 29.3307 8.70483 28.712C7.61683 28.0933 6.73149 27.2827 6.04883 26.28L8.12883 24.232C8.79016 25.0853 9.62216 25.7787 10.6248 26.312C11.6488 26.824 12.6302 27.08 13.5688 27.08C14.7422 27.08 15.6808 26.792 16.3848 26.216C17.1102 25.64 17.4728 24.8827 17.4728 23.944C17.4728 23.304 17.3448 22.76 17.0888 22.312C16.8542 21.864 16.4275 21.4267 15.8088 21C15.1902 20.552 14.2835 20.0293 13.0888 19.432C10.7848 18.3013 9.16349 17.2347 8.22483 16.232C7.28616 15.208 6.81683 14.0027 6.81683 12.616C6.81683 11.1013 7.3075 9.84267 8.28883 8.84C9.2915 7.83733 10.6355 7.21867 12.3208 6.984V5H15.1688V6.984C16.3848 7.15467 17.4515 7.53867 18.3688 8.136C19.3075 8.712 20.0115 9.448 20.4808 10.344L18.2408 12.008C17.7288 11.2827 17.0888 10.728 16.3208 10.344C15.5742 9.93867 14.7635 9.736 13.8888 9.736C12.7795 9.736 11.9048 9.992 11.2648 10.504C10.6248 10.9947 10.3048 11.6773 10.3048 12.552C10.3048 13.0853 10.4328 13.544 10.6888 13.928C10.9662 14.312 11.4462 14.728 12.1288 15.176C12.8328 15.6027 13.9102 16.168 15.3608 16.872C17.3875 17.8533 18.8168 18.8667 19.6488 19.912C20.5022 20.936 20.9288 22.1947 20.9288 23.688Z" fill="white"/>
<path d="M25.9913 26.92H29.7673V11.24L25.4153 13.768V10.632L30.9833 7.208H33.2553V26.92H36.9993V29.608H25.9913V26.92Z" fill="white"/>
<path d="M48.7973 29.928C47.24 29.928 45.8747 29.576 44.7013 28.872C43.5493 28.1467 42.6533 27.144 42.0133 25.864C41.3947 24.5627 41.0853 23.0693 41.0853 21.384C41.0853 19.016 41.6613 16.776 42.8133 14.664C43.9867 12.5307 45.576 10.76 47.5813 9.352C49.608 7.944 51.8267 7.09067 54.2373 6.792L54.5573 9.448C52.6373 9.85333 50.888 10.664 49.3093 11.88C47.7307 13.0747 46.5893 14.5253 45.8853 16.232C46.184 15.912 46.6107 15.6453 47.1653 15.432C47.7413 15.1973 48.36 15.08 49.0213 15.08C50.5147 15.08 51.7947 15.4 52.8613 16.04C53.9493 16.6587 54.7707 17.5333 55.3253 18.664C55.9013 19.7947 56.1893 21.0853 56.1893 22.536C56.1893 23.9653 55.88 25.2453 55.2613 26.376C54.664 27.4853 53.8107 28.36 52.7013 29C51.592 29.6187 50.2907 29.928 48.7973 29.928ZM48.7653 27.08C49.9813 27.08 50.952 26.664 51.6773 25.832C52.4027 25 52.7653 23.8907 52.7653 22.504C52.7653 21.1173 52.4027 20.008 51.6773 19.176C50.952 18.344 49.9813 17.928 48.7653 17.928C47.5493 17.928 46.568 18.344 45.8213 19.176C45.096 20.008 44.7333 21.1173 44.7333 22.504C44.7333 23.8907 45.096 25 45.8213 25.832C46.568 26.664 47.5493 27.08 48.7653 27.08Z" fill="white"/>
<path d="M66.3873 29.928C63.87 29.928 61.9393 28.9573 60.5953 27.016C59.2513 25.0533 58.5793 22.184 58.5793 18.408C58.5793 14.632 59.2513 11.7733 60.5953 9.832C61.9393 7.86933 63.87 6.888 66.3873 6.888C68.9047 6.888 70.8247 7.86933 72.1473 9.832C73.4913 11.7733 74.1633 14.632 74.1633 18.408C74.1633 22.184 73.4913 25.0533 72.1473 27.016C70.8247 28.9573 68.9047 29.928 66.3873 29.928ZM66.3873 27.336C67.7953 27.336 68.862 26.5893 69.5873 25.096C70.3127 23.6027 70.6753 21.3733 70.6753 18.408C70.6753 15.4213 70.3127 13.192 69.5873 11.72C68.862 10.2267 67.7953 9.48 66.3873 9.48C63.5073 9.48 62.0673 12.456 62.0673 18.408C62.0673 21.3733 62.43 23.6027 63.1553 25.096C63.902 26.5893 64.9793 27.336 66.3873 27.336Z" fill="white"/>
<path d="M86.6653 6.408H89.8333L77.6733 30.984H74.5053L86.6653 6.408Z" fill="white"/>
<path d="M90.9091 17.704C90.9091 16.0827 90.8557 14.7173 90.7491 13.608H93.5651C93.6504 14.3973 93.6931 15.336 93.6931 16.424H93.7891C94.1944 15.464 94.8451 14.7067 95.7411 14.152C96.6584 13.576 97.6931 13.288 98.8451 13.288C99.9757 13.288 100.946 13.5653 101.757 14.12C102.568 14.6533 103.112 15.4107 103.389 16.392C103.837 15.432 104.509 14.6747 105.405 14.12C106.322 13.5653 107.346 13.288 108.477 13.288C110.248 13.288 111.624 13.864 112.605 15.016C113.608 16.1467 114.109 17.7147 114.109 19.72V29.608H110.941V20.008C110.941 18.6853 110.653 17.6613 110.077 16.936C109.522 16.2107 108.722 15.848 107.677 15.848C106.61 15.848 105.736 16.2427 105.053 17.032C104.392 17.8 104.061 18.8027 104.061 20.04V29.608H100.925V20.136C100.925 17.2773 99.8797 15.848 97.7891 15.848C97.1064 15.848 96.4771 16.04 95.9011 16.424C95.3464 16.808 94.8984 17.3307 94.5571 17.992C94.2157 18.6533 94.0451 19.368 94.0451 20.136V29.608H90.9091V17.704Z" fill="white"/>
<path d="M125.015 29.928C122.562 29.928 120.631 29.192 119.223 27.72C117.815 26.2267 117.111 24.1893 117.111 21.608C117.111 19.0267 117.815 17 119.223 15.528C120.631 14.0347 122.562 13.288 125.015 13.288C127.469 13.288 129.399 14.0347 130.807 15.528C132.237 17 132.951 19.0267 132.951 21.608C132.951 24.1893 132.237 26.2267 130.807 27.72C129.399 29.192 127.469 29.928 125.015 29.928ZM125.015 27.528C126.487 27.528 127.65 27.0053 128.503 25.96C129.357 24.8933 129.783 23.4427 129.783 21.608C129.783 19.7733 129.357 18.3333 128.503 17.288C127.65 16.2213 126.487 15.688 125.015 15.688C123.522 15.688 122.359 16.2213 121.527 17.288C120.695 18.3333 120.279 19.7733 120.279 21.608C120.279 23.4427 120.695 24.8933 121.527 25.96C122.359 27.0053 123.522 27.528 125.015 27.528Z" fill="white"/>
<path d="M20.9288 23.688C20.9288 25.3093 20.4168 26.664 19.3928 27.752C18.3688 28.8187 16.9608 29.5013 15.1688 29.8V32.168H12.3208V29.864C11.0195 29.7147 9.81416 29.3307 8.70483 28.712C7.61683 28.0933 6.73149 27.2827 6.04883 26.28L8.12883 24.232C8.79016 25.0853 9.62216 25.7787 10.6248 26.312C11.6488 26.824 12.6302 27.08 13.5688 27.08C14.7422 27.08 15.6808 26.792 16.3848 26.216C17.1102 25.64 17.4728 24.8827 17.4728 23.944C17.4728 23.304 17.3448 22.76 17.0888 22.312C16.8542 21.864 16.4275 21.4267 15.8088 21C15.1902 20.552 14.2835 20.0293 13.0888 19.432C10.7848 18.3013 9.16349 17.2347 8.22483 16.232C7.28616 15.208 6.81683 14.0027 6.81683 12.616C6.81683 11.1013 7.3075 9.84267 8.28883 8.84C9.2915 7.83733 10.6355 7.21867 12.3208 6.984V5H15.1688V6.984C16.3848 7.15467 17.4515 7.53867 18.3688 8.136C19.3075 8.712 20.0115 9.448 20.4808 10.344L18.2408 12.008C17.7288 11.2827 17.0888 10.728 16.3208 10.344C15.5742 9.93867 14.7635 9.736 13.8888 9.736C12.7795 9.736 11.9048 9.992 11.2648 10.504C10.6248 10.9947 10.3048 11.6773 10.3048 12.552C10.3048 13.0853 10.4328 13.544 10.6888 13.928C10.9662 14.312 11.4462 14.728 12.1288 15.176C12.8328 15.6027 13.9102 16.168 15.3608 16.872C17.3875 17.8533 18.8168 18.8667 19.6488 19.912C20.5022 20.936 20.9288 22.1947 20.9288 23.688Z" stroke="#5D4DD9" stroke-width="2" mask="url(#path-1-outside-1_267_47)"/>
<path d="M25.9913 26.92H29.7673V11.24L25.4153 13.768V10.632L30.9833 7.208H33.2553V26.92H36.9993V29.608H25.9913V26.92Z" stroke="#5D4DD9" stroke-width="2" mask="url(#path-1-outside-1_267_47)"/>
<path d="M48.7973 29.928C47.24 29.928 45.8747 29.576 44.7013 28.872C43.5493 28.1467 42.6533 27.144 42.0133 25.864C41.3947 24.5627 41.0853 23.0693 41.0853 21.384C41.0853 19.016 41.6613 16.776 42.8133 14.664C43.9867 12.5307 45.576 10.76 47.5813 9.352C49.608 7.944 51.8267 7.09067 54.2373 6.792L54.5573 9.448C52.6373 9.85333 50.888 10.664 49.3093 11.88C47.7307 13.0747 46.5893 14.5253 45.8853 16.232C46.184 15.912 46.6107 15.6453 47.1653 15.432C47.7413 15.1973 48.36 15.08 49.0213 15.08C50.5147 15.08 51.7947 15.4 52.8613 16.04C53.9493 16.6587 54.7707 17.5333 55.3253 18.664C55.9013 19.7947 56.1893 21.0853 56.1893 22.536C56.1893 23.9653 55.88 25.2453 55.2613 26.376C54.664 27.4853 53.8107 28.36 52.7013 29C51.592 29.6187 50.2907 29.928 48.7973 29.928ZM48.7653 27.08C49.9813 27.08 50.952 26.664 51.6773 25.832C52.4027 25 52.7653 23.8907 52.7653 22.504C52.7653 21.1173 52.4027 20.008 51.6773 19.176C50.952 18.344 49.9813 17.928 48.7653 17.928C47.5493 17.928 46.568 18.344 45.8213 19.176C45.096 20.008 44.7333 21.1173 44.7333 22.504C44.7333 23.8907 45.096 25 45.8213 25.832C46.568 26.664 47.5493 27.08 48.7653 27.08Z" stroke="#5D4DD9" stroke-width="2" mask="url(#path-1-outside-1_267_47)"/>
<path d="M66.3873 29.928C63.87 29.928 61.9393 28.9573 60.5953 27.016C59.2513 25.0533 58.5793 22.184 58.5793 18.408C58.5793 14.632 59.2513 11.7733 60.5953 9.832C61.9393 7.86933 63.87 6.888 66.3873 6.888C68.9047 6.888 70.8247 7.86933 72.1473 9.832C73.4913 11.7733 74.1633 14.632 74.1633 18.408C74.1633 22.184 73.4913 25.0533 72.1473 27.016C70.8247 28.9573 68.9047 29.928 66.3873 29.928ZM66.3873 27.336C67.7953 27.336 68.862 26.5893 69.5873 25.096C70.3127 23.6027 70.6753 21.3733 70.6753 18.408C70.6753 15.4213 70.3127 13.192 69.5873 11.72C68.862 10.2267 67.7953 9.48 66.3873 9.48C63.5073 9.48 62.0673 12.456 62.0673 18.408C62.0673 21.3733 62.43 23.6027 63.1553 25.096C63.902 26.5893 64.9793 27.336 66.3873 27.336Z" stroke="#5D4DD9" stroke-width="2" mask="url(#path-1-outside-1_267_47)"/>
<path d="M86.6653 6.408H89.8333L77.6733 30.984H74.5053L86.6653 6.408Z" stroke="#5D4DD9" stroke-width="2" mask="url(#path-1-outside-1_267_47)"/>
<path d="M90.9091 17.704C90.9091 16.0827 90.8557 14.7173 90.7491 13.608H93.5651C93.6504 14.3973 93.6931 15.336 93.6931 16.424H93.7891C94.1944 15.464 94.8451 14.7067 95.7411 14.152C96.6584 13.576 97.6931 13.288 98.8451 13.288C99.9757 13.288 100.946 13.5653 101.757 14.12C102.568 14.6533 103.112 15.4107 103.389 16.392C103.837 15.432 104.509 14.6747 105.405 14.12C106.322 13.5653 107.346 13.288 108.477 13.288C110.248 13.288 111.624 13.864 112.605 15.016C113.608 16.1467 114.109 17.7147 114.109 19.72V29.608H110.941V20.008C110.941 18.6853 110.653 17.6613 110.077 16.936C109.522 16.2107 108.722 15.848 107.677 15.848C106.61 15.848 105.736 16.2427 105.053 17.032C104.392 17.8 104.061 18.8027 104.061 20.04V29.608H100.925V20.136C100.925 17.2773 99.8797 15.848 97.7891 15.848C97.1064 15.848 96.4771 16.04 95.9011 16.424C95.3464 16.808 94.8984 17.3307 94.5571 17.992C94.2157 18.6533 94.0451 19.368 94.0451 20.136V29.608H90.9091V17.704Z" stroke="#5D4DD9" stroke-width="2" mask="url(#path-1-outside-1_267_47)"/>
<path d="M125.015 29.928C122.562 29.928 120.631 29.192 119.223 27.72C117.815 26.2267 117.111 24.1893 117.111 21.608C117.111 19.0267 117.815 17 119.223 15.528C120.631 14.0347 122.562 13.288 125.015 13.288C127.469 13.288 129.399 14.0347 130.807 15.528C132.237 17 132.951 19.0267 132.951 21.608C132.951 24.1893 132.237 26.2267 130.807 27.72C129.399 29.192 127.469 29.928 125.015 29.928ZM125.015 27.528C126.487 27.528 127.65 27.0053 128.503 25.96C129.357 24.8933 129.783 23.4427 129.783 21.608C129.783 19.7733 129.357 18.3333 128.503 17.288C127.65 16.2213 126.487 15.688 125.015 15.688C123.522 15.688 122.359 16.2213 121.527 17.288C120.695 18.3333 120.279 19.7733 120.279 21.608C120.279 23.4427 120.695 24.8933 121.527 25.96C122.359 27.0053 123.522 27.528 125.015 27.528Z" stroke="#5D4DD9" stroke-width="2" mask="url(#path-1-outside-1_267_47)"/>
</g>
<defs>
<filter id="filter0_d_267_47" x="0.752441" y="0" width="137.199" height="37.168" filterUnits="userSpaceOnUse" color-interpolation-filters="sRGB">
<feFlood flood-opacity="0" result="BackgroundImageFix"/>
<feColorMatrix in="SourceAlpha" type="matrix" values="0 0 0 0 0 0 0 0 0 0 0 0 0 0 0 0 0 0 127 0" result="hardAlpha"/>
<feOffset/>
<feGaussianBlur stdDeviation="2"/>
<feComposite in2="hardAlpha" operator="out"/>
<feColorMatrix type="matrix" values="0 0 0 0 0.364706 0 0 0 0 0.301961 0 0 0 0 0.85098 0 0 0 0.5 0"/>
<feBlend mode="normal" in2="BackgroundImageFix" result="effect1_dropShadow_267_47"/>
<feBlend mode="normal" in="SourceGraphic" in2="effect1_dropShadow_267_47" result="shape"/>
</filter>
</defs>
</svg>
