<svg width="138" height="38" viewBox="0 0 138 38" fill="none" xmlns="http://www.w3.org/2000/svg">
<g filter="url(#filter0_d_267_45)">
<mask id="path-1-outside-1_267_45" maskUnits="userSpaceOnUse" x="4.04883" y="4.168" width="130" height="30" fill="black">
<rect fill="white" x="4.04883" y="4.168" width="130" height="30"/>
<path d="M20.9288 23.856C20.9288 25.4773 20.4168 26.832 19.3928 27.92C18.3688 28.9867 16.9608 29.6693 15.1688 29.968V32.336H12.3208V30.032C11.0195 29.8827 9.81416 29.4987 8.70483 28.88C7.61683 28.2613 6.73149 27.4507 6.04883 26.448L8.12883 24.4C8.79016 25.2533 9.62216 25.9467 10.6248 26.48C11.6488 26.992 12.6302 27.248 13.5688 27.248C14.7422 27.248 15.6808 26.96 16.3848 26.384C17.1102 25.808 17.4728 25.0507 17.4728 24.112C17.4728 23.472 17.3448 22.928 17.0888 22.48C16.8542 22.032 16.4275 21.5947 15.8088 21.168C15.1902 20.72 14.2835 20.1973 13.0888 19.6C10.7848 18.4693 9.16349 17.4027 8.22483 16.4C7.28616 15.376 6.81683 14.1707 6.81683 12.784C6.81683 11.2693 7.3075 10.0107 8.28883 9.008C9.2915 8.00533 10.6355 7.38667 12.3208 7.152V5.168H15.1688V7.152C16.3848 7.32267 17.4515 7.70667 18.3688 8.304C19.3075 8.88 20.0115 9.616 20.4808 10.512L18.2408 12.176C17.7288 11.4507 17.0888 10.896 16.3208 10.512C15.5742 10.1067 14.7635 9.904 13.8888 9.904C12.7795 9.904 11.9048 10.16 11.2648 10.672C10.6248 11.1627 10.3048 11.8453 10.3048 12.72C10.3048 13.2533 10.4328 13.712 10.6888 14.096C10.9662 14.48 11.4462 14.896 12.1288 15.344C12.8328 15.7707 13.9102 16.336 15.3608 17.04C17.3875 18.0213 18.8168 19.0347 19.6488 20.08C20.5022 21.104 20.9288 22.3627 20.9288 23.856Z"/>
<path d="M23.9433 26.992C25.4367 25.904 26.9407 24.6133 28.4553 23.12C29.97 21.6267 31.25 20.0267 32.2953 18.32C33.362 16.6133 33.8953 14.992 33.8953 13.456C33.8953 12.368 33.586 11.504 32.9673 10.864C32.3487 10.224 31.4953 9.904 30.4073 9.904C29.3833 9.904 28.402 10.16 27.4633 10.672C26.5247 11.184 25.778 11.8667 25.2233 12.72L23.3673 10.704C24.0713 9.57333 25.042 8.688 26.2793 8.048C27.538 7.38667 28.9247 7.056 30.4393 7.056C32.6153 7.056 34.322 7.62133 35.5593 8.752C36.818 9.86133 37.4473 11.3973 37.4473 13.36C37.4473 15.4933 36.6047 17.744 34.9193 20.112C33.2553 22.4587 31.1433 24.784 28.5833 27.088H38.3753V29.776H23.9433V26.992Z"/>
<path d="M43.7413 27.088H47.5173V11.408L43.1653 13.936V10.8L48.7333 7.376H51.0053V27.088H54.7493V29.776H43.7413V27.088Z"/>
<path d="M66.3873 30.096C63.87 30.096 61.9393 29.1253 60.5953 27.184C59.2513 25.2213 58.5793 22.352 58.5793 18.576C58.5793 14.8 59.2513 11.9413 60.5953 10C61.9393 8.03733 63.87 7.056 66.3873 7.056C68.9047 7.056 70.8247 8.03733 72.1473 10C73.4913 11.9413 74.1633 14.8 74.1633 18.576C74.1633 22.352 73.4913 25.2213 72.1473 27.184C70.8247 29.1253 68.9047 30.096 66.3873 30.096ZM66.3873 27.504C67.7953 27.504 68.862 26.7573 69.5873 25.264C70.3127 23.7707 70.6753 21.5413 70.6753 18.576C70.6753 15.5893 70.3127 13.36 69.5873 11.888C68.862 10.3947 67.7953 9.648 66.3873 9.648C63.5073 9.648 62.0673 12.624 62.0673 18.576C62.0673 21.5413 62.43 23.7707 63.1553 25.264C63.902 26.7573 64.9793 27.504 66.3873 27.504Z"/>
<path d="M86.6653 6.576H89.8333L77.6733 31.152H74.5053L86.6653 6.576Z"/>
<path d="M90.9091 17.872C90.9091 16.2507 90.8557 14.8853 90.7491 13.776H93.5651C93.6504 14.5653 93.6931 15.504 93.6931 16.592H93.7891C94.1944 15.632 94.8451 14.8747 95.7411 14.32C96.6584 13.744 97.6931 13.456 98.8451 13.456C99.9757 13.456 100.946 13.7333 101.757 14.288C102.568 14.8213 103.112 15.5787 103.389 16.56C103.837 15.6 104.509 14.8427 105.405 14.288C106.322 13.7333 107.346 13.456 108.477 13.456C110.248 13.456 111.624 14.032 112.605 15.184C113.608 16.3147 114.109 17.8827 114.109 19.888V29.776H110.941V20.176C110.941 18.8533 110.653 17.8293 110.077 17.104C109.522 16.3787 108.722 16.016 107.677 16.016C106.61 16.016 105.736 16.4107 105.053 17.2C104.392 17.968 104.061 18.9707 104.061 20.208V29.776H100.925V20.304C100.925 17.4453 99.8797 16.016 97.7891 16.016C97.1064 16.016 96.4771 16.208 95.9011 16.592C95.3464 16.976 94.8984 17.4987 94.5571 18.16C94.2157 18.8213 94.0451 19.536 94.0451 20.304V29.776H90.9091V17.872Z"/>
<path d="M125.015 30.096C122.562 30.096 120.631 29.36 119.223 27.888C117.815 26.3947 117.111 24.3573 117.111 21.776C117.111 19.1947 117.815 17.168 119.223 15.696C120.631 14.2027 122.562 13.456 125.015 13.456C127.469 13.456 129.399 14.2027 130.807 15.696C132.237 17.168 132.951 19.1947 132.951 21.776C132.951 24.3573 132.237 26.3947 130.807 27.888C129.399 29.36 127.469 30.096 125.015 30.096ZM125.015 27.696C126.487 27.696 127.65 27.1733 128.503 26.128C129.357 25.0613 129.783 23.6107 129.783 21.776C129.783 19.9413 129.357 18.5013 128.503 17.456C127.65 16.3893 126.487 15.856 125.015 15.856C123.522 15.856 122.359 16.3893 121.527 17.456C120.695 18.5013 120.279 19.9413 120.279 21.776C120.279 23.6107 120.695 25.0613 121.527 26.128C122.359 27.1733 123.522 27.696 125.015 27.696Z"/>
</mask>
<path d="M20.9288 23.856C20.9288 25.4773 20.4168 26.832 19.3928 27.92C18.3688 28.9867 16.9608 29.6693 15.1688 29.968V32.336H12.3208V30.032C11.0195 29.8827 9.81416 29.4987 8.70483 28.88C7.61683 28.2613 6.73149 27.4507 6.04883 26.448L8.12883 24.4C8.79016 25.2533 9.62216 25.9467 10.6248 26.48C11.6488 26.992 12.6302 27.248 13.5688 27.248C14.7422 27.248 15.6808 26.96 16.3848 26.384C17.1102 25.808 17.4728 25.0507 17.4728 24.112C17.4728 23.472 17.3448 22.928 17.0888 22.48C16.8542 22.032 16.4275 21.5947 15.8088 21.168C15.1902 20.72 14.2835 20.1973 13.0888 19.6C10.7848 18.4693 9.16349 17.4027 8.22483 16.4C7.28616 15.376 6.81683 14.1707 6.81683 12.784C6.81683 11.2693 7.3075 10.0107 8.28883 9.008C9.2915 8.00533 10.6355 7.38667 12.3208 7.152V5.168H15.1688V7.152C16.3848 7.32267 17.4515 7.70667 18.3688 8.304C19.3075 8.88 20.0115 9.616 20.4808 10.512L18.2408 12.176C17.7288 11.4507 17.0888 10.896 16.3208 10.512C15.5742 10.1067 14.7635 9.904 13.8888 9.904C12.7795 9.904 11.9048 10.16 11.2648 10.672C10.6248 11.1627 10.3048 11.8453 10.3048 12.72C10.3048 13.2533 10.4328 13.712 10.6888 14.096C10.9662 14.48 11.4462 14.896 12.1288 15.344C12.8328 15.7707 13.9102 16.336 15.3608 17.04C17.3875 18.0213 18.8168 19.0347 19.6488 20.08C20.5022 21.104 20.9288 22.3627 20.9288 23.856Z" fill="white"/>
<path d="M23.9433 26.992C25.4367 25.904 26.9407 24.6133 28.4553 23.12C29.97 21.6267 31.25 20.0267 32.2953 18.32C33.362 16.6133 33.8953 14.992 33.8953 13.456C33.8953 12.368 33.586 11.504 32.9673 10.864C32.3487 10.224 31.4953 9.904 30.4073 9.904C29.3833 9.904 28.402 10.16 27.4633 10.672C26.5247 11.184 25.778 11.8667 25.2233 12.72L23.3673 10.704C24.0713 9.57333 25.042 8.688 26.2793 8.048C27.538 7.38667 28.9247 7.056 30.4393 7.056C32.6153 7.056 34.322 7.62133 35.5593 8.752C36.818 9.86133 37.4473 11.3973 37.4473 13.36C37.4473 15.4933 36.6047 17.744 34.9193 20.112C33.2553 22.4587 31.1433 24.784 28.5833 27.088H38.3753V29.776H23.9433V26.992Z" fill="white"/>
<path d="M43.7413 27.088H47.5173V11.408L43.1653 13.936V10.8L48.7333 7.376H51.0053V27.088H54.7493V29.776H43.7413V27.088Z" fill="white"/>
<path d="M66.3873 30.096C63.87 30.096 61.9393 29.1253 60.5953 27.184C59.2513 25.2213 58.5793 22.352 58.5793 18.576C58.5793 14.8 59.2513 11.9413 60.5953 10C61.9393 8.03733 63.87 7.056 66.3873 7.056C68.9047 7.056 70.8247 8.03733 72.1473 10C73.4913 11.9413 74.1633 14.8 74.1633 18.576C74.1633 22.352 73.4913 25.2213 72.1473 27.184C70.8247 29.1253 68.9047 30.096 66.3873 30.096ZM66.3873 27.504C67.7953 27.504 68.862 26.7573 69.5873 25.264C70.3127 23.7707 70.6753 21.5413 70.6753 18.576C70.6753 15.5893 70.3127 13.36 69.5873 11.888C68.862 10.3947 67.7953 9.648 66.3873 9.648C63.5073 9.648 62.0673 12.624 62.0673 18.576C62.0673 21.5413 62.43 23.7707 63.1553 25.264C63.902 26.7573 64.9793 27.504 66.3873 27.504Z" fill="white"/>
<path d="M86.6653 6.576H89.8333L77.6733 31.152H74.5053L86.6653 6.576Z" fill="white"/>
<path d="M90.9091 17.872C90.9091 16.2507 90.8557 14.8853 90.7491 13.776H93.5651C93.6504 14.5653 93.6931 15.504 93.6931 16.592H93.7891C94.1944 15.632 94.8451 14.8747 95.7411 14.32C96.6584 13.744 97.6931 13.456 98.8451 13.456C99.9757 13.456 100.946 13.7333 101.757 14.288C102.568 14.8213 103.112 15.5787 103.389 16.56C103.837 15.6 104.509 14.8427 105.405 14.288C106.322 13.7333 107.346 13.456 108.477 13.456C110.248 13.456 111.624 14.032 112.605 15.184C113.608 16.3147 114.109 17.8827 114.109 19.888V29.776H110.941V20.176C110.941 18.8533 110.653 17.8293 110.077 17.104C109.522 16.3787 108.722 16.016 107.677 16.016C106.61 16.016 105.736 16.4107 105.053 17.2C104.392 17.968 104.061 18.9707 104.061 20.208V29.776H100.925V20.304C100.925 17.4453 99.8797 16.016 97.7891 16.016C97.1064 16.016 96.4771 16.208 95.9011 16.592C95.3464 16.976 94.8984 17.4987 94.5571 18.16C94.2157 18.8213 94.0451 19.536 94.0451 20.304V29.776H90.9091V17.872Z" fill="white"/>
<path d="M125.015 30.096C122.562 30.096 120.631 29.36 119.223 27.888C117.815 26.3947 117.111 24.3573 117.111 21.776C117.111 19.1947 117.815 17.168 119.223 15.696C120.631 14.2027 122.562 13.456 125.015 13.456C127.469 13.456 129.399 14.2027 130.807 15.696C132.237 17.168 132.951 19.1947 132.951 21.776C132.951 24.3573 132.237 26.3947 130.807 27.888C129.399 29.36 127.469 30.096 125.015 30.096ZM125.015 27.696C126.487 27.696 127.65 27.1733 128.503 26.128C129.357 25.0613 129.783 23.6107 129.783 21.776C129.783 19.9413 129.357 18.5013 128.503 17.456C127.65 16.3893 126.487 15.856 125.015 15.856C123.522 15.856 122.359 16.3893 121.527 17.456C120.695 18.5013 120.279 19.9413 120.279 21.776C120.279 23.6107 120.695 25.0613 121.527 26.128C122.359 27.1733 123.522 27.696 125.015 27.696Z" fill="white"/>
<path d="M20.9288 23.856C20.9288 25.4773 20.4168 26.832 19.3928 27.92C18.3688 28.9867 16.9608 29.6693 15.1688 29.968V32.336H12.3208V30.032C11.0195 29.8827 9.81416 29.4987 8.70483 28.88C7.61683 28.2613 6.73149 27.4507 6.04883 26.448L8.12883 24.4C8.79016 25.2533 9.62216 25.9467 10.6248 26.48C11.6488 26.992 12.6302 27.248 13.5688 27.248C14.7422 27.248 15.6808 26.96 16.3848 26.384C17.1102 25.808 17.4728 25.0507 17.4728 24.112C17.4728 23.472 17.3448 22.928 17.0888 22.48C16.8542 22.032 16.4275 21.5947 15.8088 21.168C15.1902 20.72 14.2835 20.1973 13.0888 19.6C10.7848 18.4693 9.16349 17.4027 8.22483 16.4C7.28616 15.376 6.81683 14.1707 6.81683 12.784C6.81683 11.2693 7.3075 10.0107 8.28883 9.008C9.2915 8.00533 10.6355 7.38667 12.3208 7.152V5.168H15.1688V7.152C16.3848 7.32267 17.4515 7.70667 18.3688 8.304C19.3075 8.88 20.0115 9.616 20.4808 10.512L18.2408 12.176C17.7288 11.4507 17.0888 10.896 16.3208 10.512C15.5742 10.1067 14.7635 9.904 13.8888 9.904C12.7795 9.904 11.9048 10.16 11.2648 10.672C10.6248 11.1627 10.3048 11.8453 10.3048 12.72C10.3048 13.2533 10.4328 13.712 10.6888 14.096C10.9662 14.48 11.4462 14.896 12.1288 15.344C12.8328 15.7707 13.9102 16.336 15.3608 17.04C17.3875 18.0213 18.8168 19.0347 19.6488 20.08C20.5022 21.104 20.9288 22.3627 20.9288 23.856Z" stroke="#5D4DD9" stroke-width="2" mask="url(#path-1-outside-1_267_45)"/>
<path d="M23.9433 26.992C25.4367 25.904 26.9407 24.6133 28.4553 23.12C29.97 21.6267 31.25 20.0267 32.2953 18.32C33.362 16.6133 33.8953 14.992 33.8953 13.456C33.8953 12.368 33.586 11.504 32.9673 10.864C32.3487 10.224 31.4953 9.904 30.4073 9.904C29.3833 9.904 28.402 10.16 27.4633 10.672C26.5247 11.184 25.778 11.8667 25.2233 12.72L23.3673 10.704C24.0713 9.57333 25.042 8.688 26.2793 8.048C27.538 7.38667 28.9247 7.056 30.4393 7.056C32.6153 7.056 34.322 7.62133 35.5593 8.752C36.818 9.86133 37.4473 11.3973 37.4473 13.36C37.4473 15.4933 36.6047 17.744 34.9193 20.112C33.2553 22.4587 31.1433 24.784 28.5833 27.088H38.3753V29.776H23.9433V26.992Z" stroke="#5D4DD9" stroke-width="2" mask="url(#path-1-outside-1_267_45)"/>
<path d="M43.7413 27.088H47.5173V11.408L43.1653 13.936V10.8L48.7333 7.376H51.0053V27.088H54.7493V29.776H43.7413V27.088Z" stroke="#5D4DD9" stroke-width="2" mask="url(#path-1-outside-1_267_45)"/>
<path d="M66.3873 30.096C63.87 30.096 61.9393 29.1253 60.5953 27.184C59.2513 25.2213 58.5793 22.352 58.5793 18.576C58.5793 14.8 59.2513 11.9413 60.5953 10C61.9393 8.03733 63.87 7.056 66.3873 7.056C68.9047 7.056 70.8247 8.03733 72.1473 10C73.4913 11.9413 74.1633 14.8 74.1633 18.576C74.1633 22.352 73.4913 25.2213 72.1473 27.184C70.8247 29.1253 68.9047 30.096 66.3873 30.096ZM66.3873 27.504C67.7953 27.504 68.862 26.7573 69.5873 25.264C70.3127 23.7707 70.6753 21.5413 70.6753 18.576C70.6753 15.5893 70.3127 13.36 69.5873 11.888C68.862 10.3947 67.7953 9.648 66.3873 9.648C63.5073 9.648 62.0673 12.624 62.0673 18.576C62.0673 21.5413 62.43 23.7707 63.1553 25.264C63.902 26.7573 64.9793 27.504 66.3873 27.504Z" stroke="#5D4DD9" stroke-width="2" mask="url(#path-1-outside-1_267_45)"/>
<path d="M86.6653 6.576H89.8333L77.6733 31.152H74.5053L86.6653 6.576Z" stroke="#5D4DD9" stroke-width="2" mask="url(#path-1-outside-1_267_45)"/>
<path d="M90.9091 17.872C90.9091 16.2507 90.8557 14.8853 90.7491 13.776H93.5651C93.6504 14.5653 93.6931 15.504 93.6931 16.592H93.7891C94.1944 15.632 94.8451 14.8747 95.7411 14.32C96.6584 13.744 97.6931 13.456 98.8451 13.456C99.9757 13.456 100.946 13.7333 101.757 14.288C102.568 14.8213 103.112 15.5787 103.389 16.56C103.837 15.6 104.509 14.8427 105.405 14.288C106.322 13.7333 107.346 13.456 108.477 13.456C110.248 13.456 111.624 14.032 112.605 15.184C113.608 16.3147 114.109 17.8827 114.109 19.888V29.776H110.941V20.176C110.941 18.8533 110.653 17.8293 110.077 17.104C109.522 16.3787 108.722 16.016 107.677 16.016C106.61 16.016 105.736 16.4107 105.053 17.2C104.392 17.968 104.061 18.9707 104.061 20.208V29.776H100.925V20.304C100.925 17.4453 99.8797 16.016 97.7891 16.016C97.1064 16.016 96.4771 16.208 95.9011 16.592C95.3464 16.976 94.8984 17.4987 94.5571 18.16C94.2157 18.8213 94.0451 19.536 94.0451 20.304V29.776H90.9091V17.872Z" stroke="#5D4DD9" stroke-width="2" mask="url(#path-1-outside-1_267_45)"/>
<path d="M125.015 30.096C122.562 30.096 120.631 29.36 119.223 27.888C117.815 26.3947 117.111 24.3573 117.111 21.776C117.111 19.1947 117.815 17.168 119.223 15.696C120.631 14.2027 122.562 13.456 125.015 13.456C127.469 13.456 129.399 14.2027 130.807 15.696C132.237 17.168 132.951 19.1947 132.951 21.776C132.951 24.3573 132.237 26.3947 130.807 27.888C129.399 29.36 127.469 30.096 125.015 30.096ZM125.015 27.696C126.487 27.696 127.65 27.1733 128.503 26.128C129.357 25.0613 129.783 23.6107 129.783 21.776C129.783 19.9413 129.357 18.5013 128.503 17.456C127.65 16.3893 126.487 15.856 125.015 15.856C123.522 15.856 122.359 16.3893 121.527 17.456C120.695 18.5013 120.279 19.9413 120.279 21.776C120.279 23.6107 120.695 25.0613 121.527 26.128C122.359 27.1733 123.522 27.696 125.015 27.696Z" stroke="#5D4DD9" stroke-width="2" mask="url(#path-1-outside-1_267_45)"/>
</g>
<defs>
<filter id="filter0_d_267_45" x="0.752441" y="0.167999" width="137.199" height="37.168" filterUnits="userSpaceOnUse" color-interpolation-filters="sRGB">
<feFlood flood-opacity="0" result="BackgroundImageFix"/>
<feColorMatrix in="SourceAlpha" type="matrix" values="0 0 0 0 0 0 0 0 0 0 0 0 0 0 0 0 0 0 127 0" result="hardAlpha"/>
<feOffset/>
<feGaussianBlur stdDeviation="2"/>
<feComposite in2="hardAlpha" operator="out"/>
<feColorMatrix type="matrix" values="0 0 0 0 0.364706 0 0 0 0 0.301961 0 0 0 0 0.85098 0 0 0 0.5 0"/>
<feBlend mode="normal" in2="BackgroundImageFix" result="effect1_dropShadow_267_45"/>
<feBlend mode="normal" in="SourceGraphic" in2="effect1_dropShadow_267_45" result="shape"/>
</filter>
</defs>
</svg>
