<svg width="512" height="512" viewBox="0 0 512 512" fill="none" xmlns="http://www.w3.org/2000/svg">
<path d="M20.3227 20.3227C47.7109 -6.77422 91.9983 -6.77422 116.764 20.3227L253.706 157.555L393.269 20.3227C420.657 -6.77422 464.945 -6.77422 489.711 20.3227C519.43 47.7109 519.43 91.9983 489.711 116.764L355.1 253.706L489.711 393.269C519.43 420.657 519.43 464.945 489.711 489.711C464.945 519.43 420.657 519.43 393.269 489.711L253.706 355.1L116.764 489.711C91.9983 519.43 47.7109 519.43 20.3227 489.711C-6.77422 464.945 -6.77422 420.657 20.3227 393.269L157.555 253.706L20.3227 116.764C-6.77422 91.9983 -6.77422 47.7109 20.3227 20.3227Z" fill="#0A2145"/>
</svg>
