<svg width="115" height="34" viewBox="0 0 115 34" fill="none" xmlns="http://www.w3.org/2000/svg">
<g filter="url(#filter0_d_267_43)">
<mask id="path-1-outside-1_267_43" maskUnits="userSpaceOnUse" x="4.51611" y="4.336" width="106" height="26" fill="black">
<rect fill="white" x="4.51611" y="4.336" width="106" height="26"/>
<path d="M15.4041 28.376C13.3988 28.376 11.6494 27.9067 10.1561 26.968C8.68411 26.0293 7.54278 24.696 6.73211 22.968C5.92145 21.24 5.51611 19.2027 5.51611 16.856C5.51611 14.5093 5.92145 12.472 6.73211 10.744C7.54278 9.016 8.69478 7.68267 10.1881 6.744C11.7028 5.80533 13.4734 5.336 15.5001 5.336C17.1428 5.336 18.6041 5.656 19.8841 6.296C21.1641 6.936 22.1028 7.832 22.7001 8.984L20.7161 10.84C19.5641 9.06933 17.8468 8.184 15.5641 8.184C13.4734 8.184 11.8628 8.94133 10.7321 10.456C9.60145 11.9493 9.03611 14.0827 9.03611 16.856C9.03611 19.608 9.59078 21.7413 10.7001 23.256C11.8094 24.7707 13.3774 25.528 15.4041 25.528C16.6414 25.528 17.6974 25.3147 18.5721 24.888C19.4468 24.44 20.1614 23.768 20.7161 22.872L22.7001 24.728C22.0814 25.88 21.1321 26.776 19.8521 27.416C18.5934 28.056 17.1108 28.376 15.4041 28.376Z"/>
<path d="M30.9779 28.376C29.1432 28.376 27.7459 27.7787 26.7859 26.584C25.8472 25.368 25.3779 23.5867 25.3779 21.24V12.056H28.5459V21.272C28.5459 22.808 28.8125 23.9493 29.3459 24.696C29.8792 25.4427 30.6899 25.816 31.7779 25.816C33.0579 25.816 34.1139 25.336 34.9459 24.376C35.7992 23.416 36.2259 22.2 36.2259 20.728V12.056H39.3939V24.44C39.3939 25.592 39.4899 26.7973 39.6819 28.056H36.7059C36.5352 27.1387 36.4392 26.1893 36.4179 25.208H36.3219C35.8952 26.1893 35.1912 26.968 34.2099 27.544C33.2499 28.0987 32.1725 28.376 30.9779 28.376Z"/>
<path d="M47.8319 28.376C46.5732 28.376 45.4425 28.12 44.4399 27.608C43.4372 27.096 42.7332 26.4133 42.3279 25.56L44.3439 24.184C44.7065 24.7387 45.1972 25.176 45.8159 25.496C46.4345 25.816 47.1065 25.976 47.8319 25.976C48.6639 25.976 49.3465 25.7413 49.8799 25.272C50.4345 24.8027 50.7119 24.2053 50.7119 23.48C50.7119 22.904 50.4985 22.4347 50.0719 22.072C49.6452 21.688 48.8559 21.2827 47.7039 20.856C45.8479 20.152 44.5359 19.4373 43.7679 18.712C43.0212 17.9653 42.6479 17.048 42.6479 15.96C42.6479 14.68 43.1492 13.656 44.1519 12.888C45.1759 12.12 46.5305 11.736 48.2159 11.736C49.3039 11.736 50.2959 11.96 51.1919 12.408C52.0879 12.856 52.7919 13.4853 53.3039 14.296L51.4159 15.704C51.0532 15.192 50.5945 14.808 50.0399 14.552C49.5065 14.2747 48.9092 14.136 48.2479 14.136C47.5225 14.136 46.9252 14.296 46.4559 14.616C46.0079 14.936 45.7839 15.352 45.7839 15.864C45.7839 16.3973 46.0185 16.8453 46.4879 17.208C46.9572 17.5493 47.8745 17.9867 49.2399 18.52C50.9465 19.1813 52.1412 19.8747 52.8239 20.6C53.5279 21.304 53.8799 22.2213 53.8799 23.352C53.8799 24.8667 53.3252 26.0827 52.2159 27C51.1065 27.9173 49.6452 28.376 47.8319 28.376Z"/>
<path d="M62.8664 28.376C61.373 28.376 60.1997 27.928 59.3464 27.032C58.5144 26.1147 58.0984 24.856 58.0984 23.256V14.488H55.2184V12.056H58.0984V7.832L61.1384 6.936H61.2664V12.056H65.8424V14.488H61.2664V22.872C61.2664 23.9173 61.469 24.6853 61.8744 25.176C62.301 25.6667 62.941 25.912 63.7944 25.912C64.6477 25.912 65.405 25.784 66.0664 25.528L66.2584 27.8C65.469 28.184 64.3384 28.376 62.8664 28.376Z"/>
<path d="M75.4216 28.376C72.9683 28.376 71.0376 27.64 69.6296 26.168C68.2216 24.6747 67.5176 22.6373 67.5176 20.056C67.5176 17.4747 68.2216 15.448 69.6296 13.976C71.0376 12.4827 72.9683 11.736 75.4216 11.736C77.8749 11.736 79.8056 12.4827 81.2136 13.976C82.6429 15.448 83.3576 17.4747 83.3576 20.056C83.3576 22.6373 82.6429 24.6747 81.2136 26.168C79.8056 27.64 77.8749 28.376 75.4216 28.376ZM75.4216 25.976C76.8936 25.976 78.0563 25.4533 78.9096 24.408C79.7629 23.3413 80.1896 21.8907 80.1896 20.056C80.1896 18.2213 79.7629 16.7813 78.9096 15.736C78.0563 14.6693 76.8936 14.136 75.4216 14.136C73.9283 14.136 72.7656 14.6693 71.9336 15.736C71.1016 16.7813 70.6856 18.2213 70.6856 20.056C70.6856 21.8907 71.1016 23.3413 71.9336 24.408C72.7656 25.4533 73.9283 25.976 75.4216 25.976Z"/>
<path d="M86.2841 16.152C86.2841 14.5307 86.2308 13.1653 86.1241 12.056H88.9401C89.0255 12.8453 89.0681 13.784 89.0681 14.872H89.1641C89.5694 13.912 90.2201 13.1547 91.1161 12.6C92.0334 12.024 93.0681 11.736 94.2201 11.736C95.3508 11.736 96.3214 12.0133 97.1321 12.568C97.9428 13.1013 98.4868 13.8587 98.7641 14.84C99.2121 13.88 99.8841 13.1227 100.78 12.568C101.697 12.0133 102.721 11.736 103.852 11.736C105.623 11.736 106.999 12.312 107.98 13.464C108.983 14.5947 109.484 16.1627 109.484 18.168V28.056H106.316V18.456C106.316 17.1333 106.028 16.1093 105.452 15.384C104.897 14.6587 104.097 14.296 103.052 14.296C101.985 14.296 101.111 14.6907 100.428 15.48C99.7668 16.248 99.4361 17.2507 99.4361 18.488V28.056H96.3001V18.584C96.3001 15.7253 95.2548 14.296 93.1641 14.296C92.4814 14.296 91.8521 14.488 91.2761 14.872C90.7214 15.256 90.2734 15.7787 89.9321 16.44C89.5908 17.1013 89.4201 17.816 89.4201 18.584V28.056H86.2841V16.152Z"/>
</mask>
<path d="M15.4041 28.376C13.3988 28.376 11.6494 27.9067 10.1561 26.968C8.68411 26.0293 7.54278 24.696 6.73211 22.968C5.92145 21.24 5.51611 19.2027 5.51611 16.856C5.51611 14.5093 5.92145 12.472 6.73211 10.744C7.54278 9.016 8.69478 7.68267 10.1881 6.744C11.7028 5.80533 13.4734 5.336 15.5001 5.336C17.1428 5.336 18.6041 5.656 19.8841 6.296C21.1641 6.936 22.1028 7.832 22.7001 8.984L20.7161 10.84C19.5641 9.06933 17.8468 8.184 15.5641 8.184C13.4734 8.184 11.8628 8.94133 10.7321 10.456C9.60145 11.9493 9.03611 14.0827 9.03611 16.856C9.03611 19.608 9.59078 21.7413 10.7001 23.256C11.8094 24.7707 13.3774 25.528 15.4041 25.528C16.6414 25.528 17.6974 25.3147 18.5721 24.888C19.4468 24.44 20.1614 23.768 20.7161 22.872L22.7001 24.728C22.0814 25.88 21.1321 26.776 19.8521 27.416C18.5934 28.056 17.1108 28.376 15.4041 28.376Z" fill="white"/>
<path d="M30.9779 28.376C29.1432 28.376 27.7459 27.7787 26.7859 26.584C25.8472 25.368 25.3779 23.5867 25.3779 21.24V12.056H28.5459V21.272C28.5459 22.808 28.8125 23.9493 29.3459 24.696C29.8792 25.4427 30.6899 25.816 31.7779 25.816C33.0579 25.816 34.1139 25.336 34.9459 24.376C35.7992 23.416 36.2259 22.2 36.2259 20.728V12.056H39.3939V24.44C39.3939 25.592 39.4899 26.7973 39.6819 28.056H36.7059C36.5352 27.1387 36.4392 26.1893 36.4179 25.208H36.3219C35.8952 26.1893 35.1912 26.968 34.2099 27.544C33.2499 28.0987 32.1725 28.376 30.9779 28.376Z" fill="white"/>
<path d="M47.8319 28.376C46.5732 28.376 45.4425 28.12 44.4399 27.608C43.4372 27.096 42.7332 26.4133 42.3279 25.56L44.3439 24.184C44.7065 24.7387 45.1972 25.176 45.8159 25.496C46.4345 25.816 47.1065 25.976 47.8319 25.976C48.6639 25.976 49.3465 25.7413 49.8799 25.272C50.4345 24.8027 50.7119 24.2053 50.7119 23.48C50.7119 22.904 50.4985 22.4347 50.0719 22.072C49.6452 21.688 48.8559 21.2827 47.7039 20.856C45.8479 20.152 44.5359 19.4373 43.7679 18.712C43.0212 17.9653 42.6479 17.048 42.6479 15.96C42.6479 14.68 43.1492 13.656 44.1519 12.888C45.1759 12.12 46.5305 11.736 48.2159 11.736C49.3039 11.736 50.2959 11.96 51.1919 12.408C52.0879 12.856 52.7919 13.4853 53.3039 14.296L51.4159 15.704C51.0532 15.192 50.5945 14.808 50.0399 14.552C49.5065 14.2747 48.9092 14.136 48.2479 14.136C47.5225 14.136 46.9252 14.296 46.4559 14.616C46.0079 14.936 45.7839 15.352 45.7839 15.864C45.7839 16.3973 46.0185 16.8453 46.4879 17.208C46.9572 17.5493 47.8745 17.9867 49.2399 18.52C50.9465 19.1813 52.1412 19.8747 52.8239 20.6C53.5279 21.304 53.8799 22.2213 53.8799 23.352C53.8799 24.8667 53.3252 26.0827 52.2159 27C51.1065 27.9173 49.6452 28.376 47.8319 28.376Z" fill="white"/>
<path d="M62.8664 28.376C61.373 28.376 60.1997 27.928 59.3464 27.032C58.5144 26.1147 58.0984 24.856 58.0984 23.256V14.488H55.2184V12.056H58.0984V7.832L61.1384 6.936H61.2664V12.056H65.8424V14.488H61.2664V22.872C61.2664 23.9173 61.469 24.6853 61.8744 25.176C62.301 25.6667 62.941 25.912 63.7944 25.912C64.6477 25.912 65.405 25.784 66.0664 25.528L66.2584 27.8C65.469 28.184 64.3384 28.376 62.8664 28.376Z" fill="white"/>
<path d="M75.4216 28.376C72.9683 28.376 71.0376 27.64 69.6296 26.168C68.2216 24.6747 67.5176 22.6373 67.5176 20.056C67.5176 17.4747 68.2216 15.448 69.6296 13.976C71.0376 12.4827 72.9683 11.736 75.4216 11.736C77.8749 11.736 79.8056 12.4827 81.2136 13.976C82.6429 15.448 83.3576 17.4747 83.3576 20.056C83.3576 22.6373 82.6429 24.6747 81.2136 26.168C79.8056 27.64 77.8749 28.376 75.4216 28.376ZM75.4216 25.976C76.8936 25.976 78.0563 25.4533 78.9096 24.408C79.7629 23.3413 80.1896 21.8907 80.1896 20.056C80.1896 18.2213 79.7629 16.7813 78.9096 15.736C78.0563 14.6693 76.8936 14.136 75.4216 14.136C73.9283 14.136 72.7656 14.6693 71.9336 15.736C71.1016 16.7813 70.6856 18.2213 70.6856 20.056C70.6856 21.8907 71.1016 23.3413 71.9336 24.408C72.7656 25.4533 73.9283 25.976 75.4216 25.976Z" fill="white"/>
<path d="M86.2841 16.152C86.2841 14.5307 86.2308 13.1653 86.1241 12.056H88.9401C89.0255 12.8453 89.0681 13.784 89.0681 14.872H89.1641C89.5694 13.912 90.2201 13.1547 91.1161 12.6C92.0334 12.024 93.0681 11.736 94.2201 11.736C95.3508 11.736 96.3214 12.0133 97.1321 12.568C97.9428 13.1013 98.4868 13.8587 98.7641 14.84C99.2121 13.88 99.8841 13.1227 100.78 12.568C101.697 12.0133 102.721 11.736 103.852 11.736C105.623 11.736 106.999 12.312 107.98 13.464C108.983 14.5947 109.484 16.1627 109.484 18.168V28.056H106.316V18.456C106.316 17.1333 106.028 16.1093 105.452 15.384C104.897 14.6587 104.097 14.296 103.052 14.296C101.985 14.296 101.111 14.6907 100.428 15.48C99.7668 16.248 99.4361 17.2507 99.4361 18.488V28.056H96.3001V18.584C96.3001 15.7253 95.2548 14.296 93.1641 14.296C92.4814 14.296 91.8521 14.488 91.2761 14.872C90.7214 15.256 90.2734 15.7787 89.9321 16.44C89.5908 17.1013 89.4201 17.816 89.4201 18.584V28.056H86.2841V16.152Z" fill="white"/>
<path d="M15.4041 28.376C13.3988 28.376 11.6494 27.9067 10.1561 26.968C8.68411 26.0293 7.54278 24.696 6.73211 22.968C5.92145 21.24 5.51611 19.2027 5.51611 16.856C5.51611 14.5093 5.92145 12.472 6.73211 10.744C7.54278 9.016 8.69478 7.68267 10.1881 6.744C11.7028 5.80533 13.4734 5.336 15.5001 5.336C17.1428 5.336 18.6041 5.656 19.8841 6.296C21.1641 6.936 22.1028 7.832 22.7001 8.984L20.7161 10.84C19.5641 9.06933 17.8468 8.184 15.5641 8.184C13.4734 8.184 11.8628 8.94133 10.7321 10.456C9.60145 11.9493 9.03611 14.0827 9.03611 16.856C9.03611 19.608 9.59078 21.7413 10.7001 23.256C11.8094 24.7707 13.3774 25.528 15.4041 25.528C16.6414 25.528 17.6974 25.3147 18.5721 24.888C19.4468 24.44 20.1614 23.768 20.7161 22.872L22.7001 24.728C22.0814 25.88 21.1321 26.776 19.8521 27.416C18.5934 28.056 17.1108 28.376 15.4041 28.376Z" stroke="#5D4DD9" stroke-width="2" mask="url(#path-1-outside-1_267_43)"/>
<path d="M30.9779 28.376C29.1432 28.376 27.7459 27.7787 26.7859 26.584C25.8472 25.368 25.3779 23.5867 25.3779 21.24V12.056H28.5459V21.272C28.5459 22.808 28.8125 23.9493 29.3459 24.696C29.8792 25.4427 30.6899 25.816 31.7779 25.816C33.0579 25.816 34.1139 25.336 34.9459 24.376C35.7992 23.416 36.2259 22.2 36.2259 20.728V12.056H39.3939V24.44C39.3939 25.592 39.4899 26.7973 39.6819 28.056H36.7059C36.5352 27.1387 36.4392 26.1893 36.4179 25.208H36.3219C35.8952 26.1893 35.1912 26.968 34.2099 27.544C33.2499 28.0987 32.1725 28.376 30.9779 28.376Z" stroke="#5D4DD9" stroke-width="2" mask="url(#path-1-outside-1_267_43)"/>
<path d="M47.8319 28.376C46.5732 28.376 45.4425 28.12 44.4399 27.608C43.4372 27.096 42.7332 26.4133 42.3279 25.56L44.3439 24.184C44.7065 24.7387 45.1972 25.176 45.8159 25.496C46.4345 25.816 47.1065 25.976 47.8319 25.976C48.6639 25.976 49.3465 25.7413 49.8799 25.272C50.4345 24.8027 50.7119 24.2053 50.7119 23.48C50.7119 22.904 50.4985 22.4347 50.0719 22.072C49.6452 21.688 48.8559 21.2827 47.7039 20.856C45.8479 20.152 44.5359 19.4373 43.7679 18.712C43.0212 17.9653 42.6479 17.048 42.6479 15.96C42.6479 14.68 43.1492 13.656 44.1519 12.888C45.1759 12.12 46.5305 11.736 48.2159 11.736C49.3039 11.736 50.2959 11.96 51.1919 12.408C52.0879 12.856 52.7919 13.4853 53.3039 14.296L51.4159 15.704C51.0532 15.192 50.5945 14.808 50.0399 14.552C49.5065 14.2747 48.9092 14.136 48.2479 14.136C47.5225 14.136 46.9252 14.296 46.4559 14.616C46.0079 14.936 45.7839 15.352 45.7839 15.864C45.7839 16.3973 46.0185 16.8453 46.4879 17.208C46.9572 17.5493 47.8745 17.9867 49.2399 18.52C50.9465 19.1813 52.1412 19.8747 52.8239 20.6C53.5279 21.304 53.8799 22.2213 53.8799 23.352C53.8799 24.8667 53.3252 26.0827 52.2159 27C51.1065 27.9173 49.6452 28.376 47.8319 28.376Z" stroke="#5D4DD9" stroke-width="2" mask="url(#path-1-outside-1_267_43)"/>
<path d="M62.8664 28.376C61.373 28.376 60.1997 27.928 59.3464 27.032C58.5144 26.1147 58.0984 24.856 58.0984 23.256V14.488H55.2184V12.056H58.0984V7.832L61.1384 6.936H61.2664V12.056H65.8424V14.488H61.2664V22.872C61.2664 23.9173 61.469 24.6853 61.8744 25.176C62.301 25.6667 62.941 25.912 63.7944 25.912C64.6477 25.912 65.405 25.784 66.0664 25.528L66.2584 27.8C65.469 28.184 64.3384 28.376 62.8664 28.376Z" stroke="#5D4DD9" stroke-width="2" mask="url(#path-1-outside-1_267_43)"/>
<path d="M75.4216 28.376C72.9683 28.376 71.0376 27.64 69.6296 26.168C68.2216 24.6747 67.5176 22.6373 67.5176 20.056C67.5176 17.4747 68.2216 15.448 69.6296 13.976C71.0376 12.4827 72.9683 11.736 75.4216 11.736C77.8749 11.736 79.8056 12.4827 81.2136 13.976C82.6429 15.448 83.3576 17.4747 83.3576 20.056C83.3576 22.6373 82.6429 24.6747 81.2136 26.168C79.8056 27.64 77.8749 28.376 75.4216 28.376ZM75.4216 25.976C76.8936 25.976 78.0563 25.4533 78.9096 24.408C79.7629 23.3413 80.1896 21.8907 80.1896 20.056C80.1896 18.2213 79.7629 16.7813 78.9096 15.736C78.0563 14.6693 76.8936 14.136 75.4216 14.136C73.9283 14.136 72.7656 14.6693 71.9336 15.736C71.1016 16.7813 70.6856 18.2213 70.6856 20.056C70.6856 21.8907 71.1016 23.3413 71.9336 24.408C72.7656 25.4533 73.9283 25.976 75.4216 25.976Z" stroke="#5D4DD9" stroke-width="2" mask="url(#path-1-outside-1_267_43)"/>
<path d="M86.2841 16.152C86.2841 14.5307 86.2308 13.1653 86.1241 12.056H88.9401C89.0255 12.8453 89.0681 13.784 89.0681 14.872H89.1641C89.5694 13.912 90.2201 13.1547 91.1161 12.6C92.0334 12.024 93.0681 11.736 94.2201 11.736C95.3508 11.736 96.3214 12.0133 97.1321 12.568C97.9428 13.1013 98.4868 13.8587 98.7641 14.84C99.2121 13.88 99.8841 13.1227 100.78 12.568C101.697 12.0133 102.721 11.736 103.852 11.736C105.623 11.736 106.999 12.312 107.98 13.464C108.983 14.5947 109.484 16.1627 109.484 18.168V28.056H106.316V18.456C106.316 17.1333 106.028 16.1093 105.452 15.384C104.897 14.6587 104.097 14.296 103.052 14.296C101.985 14.296 101.111 14.6907 100.428 15.48C99.7668 16.248 99.4361 17.2507 99.4361 18.488V28.056H96.3001V18.584C96.3001 15.7253 95.2548 14.296 93.1641 14.296C92.4814 14.296 91.8521 14.488 91.2761 14.872C90.7214 15.256 90.2734 15.7787 89.9321 16.44C89.5908 17.1013 89.4201 17.816 89.4201 18.584V28.056H86.2841V16.152Z" stroke="#5D4DD9" stroke-width="2" mask="url(#path-1-outside-1_267_43)"/>
</g>
<defs>
<filter id="filter0_d_267_43" x="0.516113" y="0.335999" width="113.968" height="33.04" filterUnits="userSpaceOnUse" color-interpolation-filters="sRGB">
<feFlood flood-opacity="0" result="BackgroundImageFix"/>
<feColorMatrix in="SourceAlpha" type="matrix" values="0 0 0 0 0 0 0 0 0 0 0 0 0 0 0 0 0 0 127 0" result="hardAlpha"/>
<feOffset/>
<feGaussianBlur stdDeviation="2"/>
<feComposite in2="hardAlpha" operator="out"/>
<feColorMatrix type="matrix" values="0 0 0 0 0.364706 0 0 0 0 0.301961 0 0 0 0 0.85098 0 0 0 0.5 0"/>
<feBlend mode="normal" in2="BackgroundImageFix" result="effect1_dropShadow_267_43"/>
<feBlend mode="normal" in="SourceGraphic" in2="effect1_dropShadow_267_43" result="shape"/>
</filter>
</defs>
</svg>
