<svg id="Layer_1" data-name="Layer 1" xmlns="http://www.w3.org/2000/svg" viewBox="0 0 299.89 300.09">
  <g>
    <ellipse cx="149.94" cy="149.75" rx="81.64" ry="81.87" transform="translate(-62.01 149.48) rotate(-44.79)" style="fill: #fa7b6b"/>
    <path d="M92.05,91.81a81.19,81.19,0,0,0-23.67,52.71c.91-1,1.84-2,2.8-2.94a81.91,81.91,0,0,1,139.53,63A81.88,81.88,0,0,0,92.05,91.81Z" transform="translate(-0.04 0.37)" style="fill: #ef6f65"/>
    <ellipse cx="149.98" cy="149.67" rx="81.64" ry="81.87" transform="translate(-61.94 149.49) rotate(-44.79)" style="fill: none;stroke: #000;stroke-miterlimit: 10;stroke-width: 5px"/>
    <g>
      <path d="M18.71,281.1a23.55,23.55,0,0,0,26.77,4.61,23.84,23.84,0,0,0,3.56,4.6,23.53,23.53,0,0,0,33.28,0c26-26,13.07-79.79,13.07-79.79l-6.23-6.22S35.42,191.44,9.4,217.5a23.49,23.49,0,0,0,4.67,36.84,23.54,23.54,0,0,0,4.64,26.76Z" transform="translate(-0.04 0.37)" style="fill: #5d4dd9;stroke: #000;stroke-miterlimit: 10;stroke-width: 5px"/>
      <path d="M281.25,18.25a23.55,23.55,0,0,0-26.77-4.61A23.84,23.84,0,0,0,250.92,9a23.53,23.53,0,0,0-33.28,0c-26,26.05-13.07,79.79-13.07,79.79L210.8,95s53.74,12.89,79.77-13.17A23.5,23.5,0,0,0,285.89,45a23.54,23.54,0,0,0-4.64-26.76Z" transform="translate(-0.04 0.37)" style="fill: #5d4dd9;stroke: #000;stroke-miterlimit: 10;stroke-width: 5px"/>
    </g>
  </g>
</svg>
