<svg width="80" height="80" viewBox="0 0 80 80" fill="none" xmlns="http://www.w3.org/2000/svg">
<g clip-path="url(#clip0_240_508)">
<path d="M47.6316 15.4289C51.5261 19.615 51.5758 19.5348 51.5763 20.0566V14.9667C51.5763 14.4098 52.0277 13.9586 52.5844 13.9586H54.3708C54.81 13.9586 55.1798 14.2412 55.318 14.6334C54.6534 7.03827 48.2812 1.07983 40.5138 1.07983H39.3798C31.6123 1.07983 25.2402 7.03827 24.5755 14.6333C24.7136 14.2412 25.0834 13.9586 25.5227 13.9586H27.3091C27.8659 13.9586 28.3172 14.41 28.3172 14.9667V20.8394C28.3172 20.2214 28.845 19.7331 29.4569 19.7795C35.4898 20.213 41.6295 18.2958 46.2716 15.2633C46.7055 14.98 47.2792 15.0505 47.6316 15.4289Z" fill="#DEC08B"/>
<path d="M29.092 15.9036C29.092 8.29549 34.8234 2.02752 42.2041 1.17862C41.6489 1.11565 41.0858 1.07971 40.5139 1.07971H39.38C31.6125 1.07971 25.2403 7.03815 24.5756 14.6331C24.7137 14.2411 25.0837 13.9585 25.5228 13.9585H27.3092C27.8661 13.9585 28.3173 14.4099 28.3173 14.9666V20.8392C28.3173 20.3492 28.6494 19.9421 29.0919 19.8169L29.092 15.9036Z" fill="#C4A46B"/>
<path d="M39.9795 40.7699C37.4562 40.7699 35.2386 40.0771 33.4248 38.9182V45.048L39.9514 53.1041L46.4778 45.048V38.7454C44.6291 40.0207 42.3905 40.7699 39.9795 40.7699Z" fill="#FFBEAB"/>
<path d="M37.6047 40.554C36.0487 40.2654 34.645 39.6979 33.4248 38.9183V45.0482L37.6047 50.2074V40.554Z" fill="#F7AF9F"/>
<path d="M63.7392 51.3206L46.4736 44.634L39.9472 52.6901L33.4206 44.634L16.173 51.3206C16.173 51.3206 9.78702 53.9459 9.78702 61.2258V77.3822C9.78702 78.2025 10.452 78.8678 11.2726 78.8678H68.6526C69.4659 78.8678 70.1251 78.2086 70.1251 77.3953V61.2259C70.125 53.9461 63.7392 51.3206 63.7392 51.3206Z" fill="#91A6BC"/>
<path d="M13.9709 77.3824V59.3452C13.9709 54.3507 16.9766 51.5474 18.8638 50.2793L16.1772 51.321C16.1772 51.321 9.79126 53.9463 9.79126 61.2262V77.3826C9.79126 78.2029 10.4563 78.868 11.2767 78.868H15.4566C14.6363 78.868 13.9709 78.2027 13.9709 77.3824Z" fill="#73849B"/>
<path d="M47.5056 14.962C47.153 14.5831 46.5786 14.5127 46.1448 14.7961C41.4981 17.8316 35.3523 19.7505 29.3134 19.3169C28.7009 19.2705 28.1726 19.7592 28.1726 20.3778V29.7087C28.1726 35.7059 32.8717 41.1833 39.9797 41.1833C46.3069 41.1833 51.4544 36.0358 51.4544 29.7087V19.6244C51.4542 19.0672 51.4783 19.2323 47.5056 14.962Z" fill="#FFCDBF"/>
<path d="M32.3525 29.7091V19.3411C31.3415 19.3949 30.3261 19.3897 29.3136 19.3169C28.7011 19.2705 28.1728 19.7592 28.1728 20.3778V29.7089C28.1728 35.706 32.8719 41.1835 39.9798 41.1835C40.6356 41.1835 41.2776 41.1253 41.9037 41.0191C36.4892 40.101 32.3525 35.3803 32.3525 29.7091Z" fill="#FFBEAB"/>
<path d="M47.8317 56.8299L52.7122 47.0488L46.4779 44.6343L39.9515 52.6904L46.3147 57.2096C46.8295 57.5754 47.5495 57.3952 47.8317 56.8299Z" fill="#73849B"/>
<path d="M32.0801 56.8299L27.1997 47.0488L33.4339 44.6343L39.9603 52.6904L33.5972 57.2096C33.0823 57.5754 32.3623 57.3952 32.0801 56.8299Z" fill="#73849B"/>
<path d="M39.9597 52.6958V52.6902L39.9558 52.693L39.9519 52.6902V52.6958L35.3239 55.9827L37.5115 59.2752C39.2765 59.2752 40.6356 59.2752 42.4003 59.2752L44.5879 55.9827L39.9597 52.6958Z" fill="#FFEB3A"/>
<path d="M34.1953 78.868H45.7166L42.4003 59.2754C40.6353 59.2754 39.2762 59.2754 37.5116 59.2754L34.1953 78.868Z" fill="#FFEB3A"/>
<path d="M42.2719 54.3378L39.9598 52.6957V52.6902L39.9559 52.693L39.952 52.6902V52.6957L35.3241 55.9827L37.5117 59.2752C39.2139 59.2752 40.5358 59.2752 42.1436 59.2752L40.3473 56.5717C40.1292 56.2435 40.2113 55.8013 40.5327 55.573L42.2719 54.3378Z" fill="#FF9801"/>
<path d="M37.5116 59.2754L34.1953 78.868H38.8273L42.1434 59.2754C40.5284 59.2754 39.2202 59.2754 37.5116 59.2754Z" fill="#FF9801"/>
<path d="M61.3562 21.2586C61.3562 17.9575 58.6467 15.2814 55.3047 15.2814V27.2356C58.6467 27.2356 61.3562 24.5595 61.3562 21.2586Z" fill="#E4EAF8"/>
<path d="M18.5375 21.2586C18.5375 17.9575 21.2136 15.2814 24.5147 15.2814V27.2356C21.2136 27.2356 18.5375 24.5595 18.5375 21.2586Z" fill="#E4EAF8"/>
<path d="M58.4417 16.1463C57.5269 15.5974 56.4531 15.2816 55.3047 15.2816V27.2358C56.4531 27.2358 57.527 26.9197 58.4417 26.3711V16.1463Z" fill="#D8DCE5"/>
<path d="M21.6747 21.2586C21.6747 19.1084 22.8106 17.224 24.5147 16.1709V15.2814C21.2136 15.2814 18.5375 17.9575 18.5375 21.2586C18.5375 24.5597 21.2136 27.2357 24.5147 27.2357V26.3462C22.8108 25.2931 21.6747 23.4087 21.6747 21.2586Z" fill="#D8DCE5"/>
<path d="M25.5228 13.9586H27.3094C27.8662 13.9586 28.3175 14.41 28.3175 14.9667V27.5505C28.3175 28.1074 27.8661 28.5586 27.3094 28.5586H25.5228C24.9661 28.5586 24.5147 28.1072 24.5147 27.5505V14.9667C24.5147 14.4099 24.9661 13.9586 25.5228 13.9586Z" fill="#D8DCE5"/>
<path d="M27.2205 27.5503V14.9667C27.2205 14.5757 27.4436 14.2374 27.769 14.0702C27.6312 13.9992 27.4751 13.9586 27.3095 13.9586H25.523C24.9661 13.9586 24.5148 14.41 24.5148 14.9667V27.5505C24.5148 28.1074 24.9661 28.5586 25.523 28.5586H27.3095C27.4753 28.5586 27.6312 28.5178 27.769 28.4471C27.4434 28.2797 27.2205 27.9414 27.2205 27.5503Z" fill="#C3C8D1"/>
<path d="M41.0612 37.0601H39.5815C38.5251 37.0601 37.6689 36.2038 37.6689 35.1474C37.6689 34.0911 38.5251 33.2347 39.5815 33.2347H41.0612C42.1176 33.2347 42.9739 34.091 42.9739 35.1474C42.9737 36.2036 42.1175 37.0601 41.0612 37.0601Z" fill="#DEC08B"/>
<path d="M40.8059 35.1473C40.8059 34.3882 41.249 33.7345 41.8898 33.4254C41.6389 33.3043 41.3584 33.2345 41.0611 33.2345H39.5814C38.525 33.2345 37.6687 34.0907 37.6687 35.1472C37.6687 36.2036 38.525 37.0598 39.5814 37.0598H41.0611C41.3584 37.0598 41.6387 36.99 41.8898 36.8689C41.249 36.5601 40.8059 35.9064 40.8059 35.1473Z" fill="#C4A46B"/>
<path d="M54.2838 13.9586H52.475C51.9113 13.9586 51.4542 14.41 51.4542 14.9667V27.5505C51.4542 28.1074 51.9111 28.5586 52.475 28.5586H54.2839C54.8477 28.5586 55.3045 28.1072 55.3045 27.5505V14.9667C55.3044 14.4099 54.8475 13.9586 54.2838 13.9586Z" fill="#D8DCE5"/>
<path d="M54.16 27.5503V14.9667C54.16 14.5691 54.3938 14.2263 54.7322 14.0622C54.5967 13.9966 54.4448 13.9586 54.2838 13.9586H52.475C51.9113 13.9586 51.4542 14.41 51.4542 14.9667V27.5505C51.4542 28.1074 51.9113 28.5586 52.475 28.5586H54.2839C54.445 28.5586 54.5969 28.5207 54.7323 28.455C54.3936 28.291 54.16 27.948 54.16 27.5503Z" fill="#C3C8D1"/>
<path d="M11.3201 80C11.7809 80 67.8059 80 68.6928 80C70.1534 80 71.3417 78.8117 71.3417 77.3513V69.9997C71.3417 69.3499 70.8152 68.8233 70.1653 68.8233C69.5155 68.8233 68.9889 69.3499 68.9889 69.9997V77.3513C68.9889 77.5146 68.8561 77.6472 68.6928 77.6472H60.4747V63.6858C60.4747 63.0361 59.9481 62.5094 59.2983 62.5094C58.6484 62.5094 58.1219 63.0361 58.1219 63.6858V77.6472H46.7492L43.6772 59.4967L44.935 57.6036L45.672 58.1271C46.7758 58.9114 48.3192 58.5238 48.9228 57.3136L53.3244 48.4924L63.3391 52.3708C63.6853 52.5185 68.9889 54.8874 68.9889 61.1841V64.5099C68.9889 65.1596 69.5155 65.6863 70.1653 65.6863C70.8152 65.6863 71.3417 65.1596 71.3417 64.5099V61.1841C71.3417 53.2085 64.518 50.3116 64.2275 50.1922C64.22 50.1891 64.2126 50.1861 64.205 50.1833L47.6928 43.7886V39.7875C48.9736 38.8331 50.067 37.6417 50.9102 36.2797C54.5017 36.2797 56.5992 33.6369 56.5992 30.8902V28.2696C59.9856 27.7066 62.5762 24.7581 62.5762 21.2146C62.5762 17.6349 59.9331 14.6611 56.4961 14.1417C56.1144 10.6642 54.585 7.36814 52.1602 4.82752C49.6637 2.21111 46.3245 0.500642 42.7578 0.0109546C42.1136 -0.0768579 41.5206 0.37283 41.4322 1.01642C41.3439 1.66017 41.7941 2.25361 42.4377 2.34205C48.0358 3.1108 52.5811 7.34689 53.8725 12.738H52.6284C51.4239 12.738 50.4437 13.7178 50.4437 14.9225V16.1528C49.7714 15.436 49.2205 14.8478 48.5367 14.1128C47.7922 13.3125 46.5873 13.1656 45.6725 13.7635C41.0342 16.7936 35.5986 18.3855 29.5378 18.0883V14.9224C29.5378 13.7177 28.5578 12.7378 27.3531 12.7378H26.1042C27.3609 7.3883 31.7287 3.25111 37.2894 2.38033C37.9314 2.27986 38.3703 1.67799 38.2697 1.03611C38.1691 0.394236 37.5678 -0.0452954 36.9255 0.0557984C29.7483 1.1797 24.2694 6.9472 23.485 14.1414C20.0481 14.6611 17.4051 17.6345 17.4051 21.2142C17.4051 24.8097 20.072 27.793 23.5311 28.2928C23.8478 29.1094 24.6395 29.6908 25.5666 29.6908H27.1859C27.1998 33.7431 29.1167 37.4455 32.2884 39.7799V43.7886L15.7942 50.1831C15.7869 50.186 15.7795 50.1889 15.772 50.1919C15.4816 50.3114 8.65781 53.2083 8.65781 61.1839V77.3383C8.65828 78.806 9.85249 80 11.3201 80ZM35.6278 77.6472L38.5453 60.4099H41.4456L44.3631 77.6472H35.6278ZM33.0967 56.1092L28.8705 47.6389L33.0933 46.0036L38.2912 52.4199C36.4467 53.7297 33.2573 55.9952 33.0967 56.1092ZM41.8089 58.0571H38.1822L36.9753 56.2403L39.9956 54.0953L43.0159 56.2403L41.8089 58.0571ZM46.8945 56.1092C45.9398 55.4313 46.0325 55.4966 41.6945 52.4158L46.8912 46.0011L51.1208 47.6389L46.8945 56.1092ZM52.0942 33.7946C52.5428 32.5075 52.7908 31.1277 52.7958 29.6908H54.2469V30.89C54.2469 32.2569 53.3387 33.4149 52.0942 33.7946ZM60.2239 21.2144C60.2239 23.4556 58.68 25.3433 56.5997 25.8692V16.5594C58.68 17.0853 60.2239 18.9727 60.2239 21.2144ZM52.7967 15.0906H54.2467C54.2467 16.497 54.2467 25.8197 54.2467 27.3378H52.7967C52.7967 26.65 52.7967 15.5055 52.7967 15.0906ZM19.7583 21.2144C19.7583 18.973 21.3022 17.0855 23.3825 16.5594V25.8692C21.3022 25.3433 19.7583 23.4556 19.7583 21.2144ZM25.7353 27.1913C25.7353 26.1581 25.7353 16.1699 25.7353 15.0905H27.1853V27.3377H25.7353V27.1913ZM29.5381 29.6464C29.5381 28.1399 29.5381 21.53 29.5381 20.4464C35.5273 20.8463 41.8223 19.0647 46.8794 15.7855C49.0064 18.0708 50.1358 19.2411 50.4441 19.6385C50.4441 30.3978 50.6908 31.3524 49.5076 33.9266H43.97C43.5064 32.8053 42.4019 32.0139 41.1152 32.0139H39.6353C37.932 32.0139 36.5464 33.3996 36.5464 35.103C36.5464 36.8064 37.932 38.1921 39.6353 38.1921H41.1152C42.402 38.1921 43.5064 37.4006 43.97 36.2794H48.0111C46.0505 38.5974 43.1905 39.9316 40.1625 39.933C40.1606 39.933 40.1589 39.933 40.157 39.933C40.1553 39.933 40.1537 39.933 40.152 39.933C33.5445 39.9303 29.5381 34.738 29.5381 29.6464ZM41.8511 35.103C41.8511 35.5089 41.5209 35.8392 41.115 35.8392H39.6351C39.2292 35.8392 38.8991 35.5089 38.8991 35.103C38.8991 34.6971 39.2292 34.3667 39.6351 34.3667H41.115C41.5209 34.3669 41.8511 34.6972 41.8511 35.103ZM40.1534 42.286C40.1547 42.286 40.1558 42.286 40.1569 42.286C40.158 42.286 40.1589 42.286 40.16 42.286C41.9581 42.2853 43.727 41.9007 45.3401 41.1733V44.1774L39.9955 50.7749L34.6417 44.1664V41.1455C36.3256 41.8919 38.2153 42.286 40.1534 42.286ZM11.0111 61.1839C11.0111 54.8717 16.3408 52.5069 16.6595 52.3711L26.6662 48.4917L31.068 57.3135C31.068 57.3135 31.068 57.3136 31.0681 57.3136C31.6712 58.5222 33.2144 58.9116 34.3189 58.1269L35.0559 57.6035L36.3136 59.4966L33.2416 77.6472H21.8783V63.686C21.8783 63.0363 21.3517 62.5096 20.7019 62.5096C20.052 62.5096 19.5255 63.0363 19.5255 63.686V77.6474H11.3201C11.1498 77.6474 11.0111 77.5089 11.0111 77.3385V61.1839Z" fill="black"/>
</g>
<defs>
<clipPath id="clip0_240_508">
<rect width="80" height="80" fill="white"/>
</clipPath>
</defs>
</svg>
