<svg width="22" height="20" viewBox="0 0 22 20" fill="none" xmlns="http://www.w3.org/2000/svg">
<path d="M20.9663 7.55776C20.8297 7.13517 20.4548 6.83502 20.0114 6.79506L13.9878 6.24811L11.6059 0.673057C11.4303 0.264478 11.0303 0 10.5859 0C10.1415 0 9.7415 0.264478 9.56587 0.674012L7.18398 6.24811L1.15943 6.79506C0.716773 6.83598 0.342905 7.13517 0.205491 7.55776C0.0680777 7.98035 0.194982 8.44386 0.529839 8.73605L5.08297 12.7292L3.74035 18.6434C3.64211 19.0782 3.81089 19.5277 4.1717 19.7885C4.36564 19.9287 4.59254 20 4.82135 20C5.01864 20 5.21433 19.9468 5.38996 19.8417L10.5859 16.7363L15.7799 19.8417C16.16 20.0704 16.6391 20.0495 16.9991 19.7885C17.3601 19.5269 17.5287 19.0773 17.4305 18.6434L16.0879 12.7292L20.641 8.73684C20.9758 8.44386 21.1037 7.98115 20.9663 7.55776Z" fill="#FFC107"/>
</svg>
