<svg width="80" height="80" viewBox="0 0 80 80" fill="none" xmlns="http://www.w3.org/2000/svg">
<path d="M63.9703 7.1875H10.9172C10.5798 7.18748 10.2458 7.25391 9.93414 7.38299C9.62248 7.51208 9.33929 7.70129 9.10076 7.93982C8.86222 8.17836 8.67301 8.46154 8.54393 8.77321C8.41484 9.08487 8.34841 9.41891 8.34843 9.75625V46.25H66.5391V9.75625C66.5391 9.41891 66.4727 9.08487 66.3436 8.77321C66.2145 8.46154 66.0253 8.17836 65.7868 7.93982C65.5482 7.70129 65.265 7.51208 64.9534 7.38299C64.6417 7.25391 64.3077 7.18748 63.9703 7.1875Z" fill="#73849B"/>
<path d="M13.0359 9.75625C13.0359 9.41891 13.1023 9.08487 13.2314 8.77321C13.3605 8.46154 13.5497 8.17836 13.7883 7.93982C14.0268 7.70129 14.31 7.51208 14.6216 7.38299C14.9333 7.25391 15.2673 7.18748 15.6047 7.1875H10.9172C10.5798 7.18748 10.2458 7.25391 9.93414 7.38299C9.62248 7.51208 9.33929 7.70129 9.10076 7.93982C8.86222 8.17836 8.67301 8.46154 8.54393 8.77321C8.41484 9.08487 8.34841 9.41891 8.34843 9.75625V44.7375H13.0359" fill="#91A6BC"/>
<path d="M16.5375 42.6344V51.625H54.4219V42.6344H16.5375Z" fill="#D4E1F4"/>
<path d="M76.1625 40.4109H54.9781C54.7 40.4107 54.4245 40.4653 54.1674 40.5716C53.9104 40.6779 53.6768 40.8338 53.48 41.0304C53.2833 41.2271 53.1272 41.4605 53.0207 41.7175C52.9142 41.9745 52.8594 42.2499 52.8594 42.5281V70.6953C52.8597 71.257 53.083 71.7955 53.4804 72.1926C53.8777 72.5896 54.4164 72.8126 54.9781 72.8125H76.1625C76.7242 72.8126 77.2629 72.5896 77.6603 72.1926C78.0576 71.7955 78.281 71.257 78.2812 70.6953V42.5281C78.2812 42.2499 78.2264 41.9745 78.1199 41.7175C78.0134 41.4605 77.8574 41.2271 77.6606 41.0304C77.4638 40.8338 77.2302 40.6779 76.9732 40.5716C76.7161 40.4653 76.4407 40.4107 76.1625 40.4109Z" fill="#6D7486"/>
<path d="M19.6625 66.3093V70.4203C19.6627 70.7345 19.601 71.0456 19.4808 71.336C19.3607 71.6263 19.1845 71.8901 18.9623 72.1123C18.7401 72.3344 18.4763 72.5106 18.186 72.6308C17.8957 72.7509 17.5845 72.8127 17.2703 72.8125H4.11094C3.4765 72.8124 2.86806 72.5604 2.41945 72.1118C1.97084 71.6631 1.71879 71.0547 1.71875 70.4203V66.3093H19.6625Z" fill="#6D7486"/>
<path d="M1.71875 44.7375H19.6625V66.3094H1.71875V44.7375Z" fill="#73849B"/>
<path d="M17.2703 40.2141H4.11094C3.4765 40.2142 2.86806 40.4662 2.41945 40.9148C1.97084 41.3634 1.71879 41.9719 1.71875 42.6063V44.7376H19.6625V42.6063C19.6627 42.2921 19.601 41.9809 19.4808 41.6906C19.3607 41.4003 19.1845 41.1365 18.9623 40.9143C18.7401 40.6921 18.4763 40.5159 18.186 40.3958C17.8957 40.2756 17.5845 40.2139 17.2703 40.2141Z" fill="#6D7486"/>
<path d="M56.0375 43.9047H75.1031V67.2H56.0375V43.9047Z" fill="#73849B"/>
<path d="M10.6906 69.8562C10.9383 69.8562 11.1391 69.6555 11.1391 69.4078C11.1391 69.1601 10.9383 68.9594 10.6906 68.9594C10.443 68.9594 10.2422 69.1601 10.2422 69.4078C10.2422 69.6555 10.443 69.8562 10.6906 69.8562Z" fill="#D4E1F4"/>
<path d="M46.6969 58.0563C47.2029 58.0561 47.704 58.1556 48.1716 58.3492C48.6392 58.5428 49.064 58.8266 49.4219 59.1844C49.7797 59.5422 50.0635 59.9671 50.2571 60.4346C50.4506 60.9022 50.5502 61.4033 50.55 61.9094H23.5719C23.5717 61.4032 23.6713 60.902 23.8649 60.4343C24.0586 59.9666 24.3426 59.5417 24.7006 59.1839C25.0586 58.826 25.4836 58.5422 25.9513 58.3487C26.4191 58.1553 26.9204 58.0559 27.4266 58.0563C27.7639 58.0563 28.0979 57.9899 28.4096 57.8608C28.7213 57.7317 29.0044 57.5425 29.243 57.3039C29.4815 57.0654 29.6707 56.7822 29.7998 56.4706C29.9289 56.1589 29.9953 55.8248 29.9953 55.4875V51.625H44.1266V55.4875C44.1269 56.169 44.3978 56.8224 44.8798 57.3041C45.3618 57.7858 46.0154 58.0563 46.6969 58.0563Z" fill="#BDCBDB"/>
<path d="M37.0609 45.8453C37.315 45.8453 37.5633 45.9207 37.7745 46.0618C37.9857 46.2029 38.1503 46.4035 38.2475 46.6382C38.3448 46.8729 38.3702 47.1311 38.3206 47.3803C38.2711 47.6294 38.1487 47.8583 37.9691 48.0379C37.7895 48.2175 37.5606 48.3398 37.3115 48.3894C37.0624 48.439 36.8041 48.4135 36.5694 48.3163C36.3347 48.2191 36.1341 48.0545 35.993 47.8433C35.8519 47.632 35.7766 47.3837 35.7766 47.1297C35.7769 46.7892 35.9123 46.4627 36.1531 46.2219C36.3939 45.9811 36.7204 45.8457 37.0609 45.8453Z" fill="#6D7486"/>
<path d="M1.71875 44.7375H6.40625V66.3094H1.71875V44.7375Z" fill="#91A6BC"/>
<path d="M8.79844 40.2141H4.11094C3.4765 40.2142 2.86806 40.4662 2.41945 40.9148C1.97084 41.3634 1.71879 41.9719 1.71875 42.6063V44.7376H6.40625V42.6063C6.40629 41.9719 6.65834 41.3634 7.10695 40.9148C7.55556 40.4662 8.164 40.2142 8.79844 40.2141Z" fill="#B0B5CA"/>
<path d="M56.0375 43.9047H60.725V67.2H56.0375V43.9047Z" fill="#91A6BC"/>
<path d="M6.60281 43.8004C6.35417 43.8004 6.11572 43.8992 5.9399 44.075C5.76409 44.2508 5.66531 44.4893 5.66531 44.7379C5.66531 44.9866 5.76409 45.225 5.9399 45.4008C6.11572 45.5766 6.35417 45.6754 6.60281 45.6754H6.61734C6.74008 45.6753 6.86158 45.6509 6.97486 45.6036C7.08813 45.5564 7.19095 45.4872 7.2774 45.4001C7.36386 45.313 7.43224 45.2096 7.47862 45.096C7.525 44.9823 7.54846 44.8606 7.54766 44.7379C7.54596 44.4885 7.44564 44.2499 7.26861 44.0743C7.09157 43.8986 6.85221 43.8002 6.60281 43.8004Z" fill="#284268"/>
<path d="M10.6909 70.7943C11.4565 70.7943 12.077 70.1737 12.077 69.4082C12.077 68.6427 11.4565 68.0221 10.6909 68.0221C9.92542 68.0221 9.30484 68.6427 9.30484 69.4082C9.30484 70.1737 9.92542 70.7943 10.6909 70.7943Z" fill="#284268"/>
<path d="M66.7067 68.8042H64.4347C64.186 68.8042 63.9476 68.903 63.7718 69.0788C63.596 69.2546 63.4972 69.4931 63.4972 69.7417C63.4972 69.9903 63.596 70.2288 63.7718 70.4046C63.9476 70.5804 64.186 70.6792 64.4347 70.6792H66.7067C66.9553 70.6792 67.1938 70.5804 67.3696 70.4046C67.5454 70.2288 67.6442 69.9903 67.6442 69.7417C67.6442 69.4931 67.5454 69.2546 67.3696 69.0788C67.1938 68.903 66.9553 68.8042 66.7067 68.8042Z" fill="#284268"/>
<path d="M75.1036 42.967H56.0378C55.7892 42.967 55.5507 43.0658 55.3749 43.2416C55.1991 43.4174 55.1003 43.6559 55.1003 43.9045V49.4634C55.1003 49.7121 55.1991 49.9505 55.3749 50.1264C55.5507 50.3022 55.7892 50.4009 56.0378 50.4009C56.2865 50.4009 56.5249 50.3022 56.7007 50.1264C56.8765 49.9505 56.9753 49.7121 56.9753 49.4634V44.842H74.1661V66.2628H56.9753V55.7134C56.9753 55.4648 56.8765 55.2263 56.7007 55.0505C56.5249 54.8747 56.2865 54.7759 56.0378 54.7759C55.7892 54.7759 55.5507 54.8747 55.3749 55.0505C55.1991 55.2263 55.1003 55.4648 55.1003 55.7134V67.2003C55.1003 67.449 55.1991 67.6874 55.3749 67.8632C55.5507 68.039 55.7892 68.1378 56.0378 68.1378H75.1036C75.3522 68.1378 75.5907 68.039 75.7665 67.8632C75.9423 67.6874 76.0411 67.449 76.0411 67.2003V43.9045C76.0411 43.6559 75.9423 43.4174 75.7665 43.2416C75.5907 43.0658 75.3522 42.967 75.1036 42.967Z" fill="#284268"/>
<path d="M37.0614 49.3516C37.5008 49.3515 37.9304 49.2212 38.2957 48.977C38.6611 48.7328 38.9458 48.3858 39.1139 47.9798C39.282 47.5738 39.326 47.127 39.2402 46.6961C39.1545 46.2651 38.9428 45.8692 38.6321 45.5585C38.3213 45.2478 37.9254 45.0362 37.4944 44.9505C37.0634 44.8648 36.6167 44.9088 36.2107 45.077C35.8048 45.2452 35.4578 45.53 35.2137 45.8953C34.9695 46.2607 34.8392 46.6903 34.8392 47.1297C34.8399 47.7188 35.0743 48.2836 35.4909 48.7001C35.9075 49.1167 36.4723 49.351 37.0614 49.3516ZM37.0614 46.7828C37.13 46.7829 37.197 46.8033 37.254 46.8414C37.311 46.8796 37.3554 46.9338 37.3816 46.9972C37.4079 47.0606 37.4147 47.1303 37.4013 47.1976C37.3878 47.2648 37.3548 47.3266 37.3063 47.3751C37.2577 47.4236 37.1959 47.4566 37.1286 47.4699C37.0614 47.4833 36.9916 47.4764 36.9283 47.4502C36.8649 47.4239 36.8108 47.3794 36.7727 47.3224C36.7346 47.2654 36.7142 47.1983 36.7142 47.1297C36.7144 47.0377 36.751 46.9495 36.8161 46.8845C36.8812 46.8195 36.9694 46.7829 37.0614 46.7828Z" fill="#284268"/>
<path d="M36.0758 57.1187H36.0147C35.766 57.1187 35.5276 57.2174 35.3518 57.3932C35.176 57.5691 35.0772 57.8075 35.0772 58.0562C35.0772 58.3048 35.176 58.5433 35.3518 58.7191C35.5276 58.8949 35.766 58.9937 36.0147 58.9937H36.0758C36.3244 58.9937 36.5629 58.8949 36.7387 58.7191C36.9145 58.5433 37.0133 58.3048 37.0133 58.0562C37.0133 57.8075 36.9145 57.5691 36.7387 57.3932C36.5629 57.2174 36.3244 57.1187 36.0758 57.1187Z" fill="#284268"/>
<path d="M76.1628 39.4727H67.4766V9.75609C67.4754 8.82644 67.1055 7.93521 66.4481 7.27791C65.7907 6.62062 64.8993 6.25095 63.9697 6.25H10.9178C9.98816 6.25095 9.09684 6.62062 8.4394 7.27791C7.78197 7.93521 7.4121 8.82644 7.41094 9.75609V39.2762H4.11125C3.22845 39.2772 2.38208 39.6283 1.7578 40.2525C1.13352 40.8767 0.782325 41.723 0.78125 42.6058V70.4206C0.782367 71.3034 1.13358 72.1497 1.75786 72.7738C2.38213 73.398 3.22848 73.749 4.11125 73.75H17.2705C18.1533 73.7491 18.9997 73.398 19.624 72.7739C20.2483 72.1497 20.5995 71.3034 20.6006 70.4206V52.5625H29.0581V55.4877C29.0575 55.9202 28.8854 56.3349 28.5795 56.6407C28.2736 56.9465 27.8588 57.1185 27.4263 57.1189C26.1561 57.1203 24.9383 57.6254 24.04 58.5235C23.1418 59.4215 22.6364 60.6392 22.6347 61.9094C22.6347 62.158 22.7335 62.3965 22.9093 62.5723C23.0851 62.7481 23.3235 62.8469 23.5722 62.8469H50.5508C50.7994 62.8469 51.0379 62.7481 51.2137 62.5723C51.3895 62.3965 51.4883 62.158 51.4883 61.9094C51.4866 60.6792 51.0123 59.4967 50.1635 58.6063C49.3148 57.7159 48.1563 57.1856 46.9277 57.125C46.8936 57.1213 46.8594 57.1193 46.8252 57.1192H46.6967C46.2642 57.1188 45.8494 56.9468 45.5435 56.641C45.2376 56.3352 45.0654 55.9205 45.0648 55.488V52.5625H51.9227V70.6947C51.9236 71.5048 52.2459 72.2815 52.8188 72.8543C53.3917 73.4271 54.1685 73.7492 54.9786 73.75H76.1628C76.9729 73.7492 77.7497 73.427 78.3226 72.8542C78.8955 72.2815 79.2178 71.5048 79.2188 70.6947V42.528C79.2178 41.7178 78.8955 40.9412 78.3226 40.3684C77.7497 39.7956 76.9729 39.4735 76.1628 39.4727ZM18.7253 70.4206C18.7248 70.8063 18.5713 71.1759 18.2986 71.4486C18.0258 71.7212 17.6561 71.8746 17.2705 71.875H4.11125C3.72558 71.8746 3.35581 71.7213 3.08304 71.4487C2.81027 71.176 2.65679 70.8063 2.65625 70.4206V67.2472H18.7256L18.7253 70.4206ZM18.7253 43.8005H9.35625C9.10761 43.8005 8.86915 43.8992 8.69334 44.0751C8.51752 44.2509 8.41875 44.4893 8.41875 44.738C8.41875 44.9866 8.51752 45.2251 8.69334 45.4009C8.86915 45.5767 9.10761 45.6755 9.35625 45.6755H18.7256V65.3722H2.65625V45.6755H3.90891C4.15755 45.6755 4.396 45.5767 4.57182 45.4009C4.74763 45.2251 4.84641 44.9866 4.84641 44.738C4.84641 44.4893 4.74763 44.2509 4.57182 44.0751C4.396 43.8992 4.15755 43.8005 3.90891 43.8005H2.65625V42.6058C2.65675 42.2201 2.81021 41.8503 3.08299 41.5777C3.35576 41.305 3.72556 41.1516 4.11125 41.1513H17.2705C17.6562 41.1516 18.026 41.305 18.2988 41.5776C18.5716 41.8503 18.7251 42.2201 18.7256 42.6058L18.7253 43.8005ZM46.6964 58.9936C47.3055 58.9943 47.8991 59.1853 48.3943 59.54C48.8895 59.8946 49.2615 60.3951 49.4583 60.9716H24.6642C24.861 60.3951 25.233 59.8946 25.7282 59.5399C26.2235 59.1853 26.8171 58.9943 27.4263 58.9936C28.3559 58.9926 29.2472 58.6229 29.9047 57.9656C30.5621 57.3083 30.932 56.417 30.9331 55.4873V52.5625H43.1898V55.4877C43.1894 56.0561 43.328 56.6161 43.5938 57.1186H39.283C39.0343 57.1186 38.7959 57.2174 38.6201 57.3932C38.4442 57.569 38.3455 57.8074 38.3455 58.0561C38.3455 58.3047 38.4442 58.5432 38.6201 58.719C38.7959 58.8948 39.0343 58.9936 39.283 58.9936H46.6964ZM52.0402 41.6967H30.1778C29.9292 41.6967 29.6907 41.7955 29.5149 41.9713C29.3391 42.1471 29.2403 42.3856 29.2403 42.6342C29.2403 42.8829 29.3391 43.1213 29.5149 43.2971C29.6907 43.4729 29.9292 43.5717 30.1778 43.5717H51.9227V50.6875H20.6006V43.572H23.9278C24.1765 43.572 24.4149 43.4733 24.5907 43.2974C24.7665 43.1216 24.8653 42.8832 24.8653 42.6345C24.8653 42.3859 24.7665 42.1474 24.5907 41.9716C24.4149 41.7958 24.1765 41.697 23.9278 41.697H20.4714C20.2731 41.0006 19.8535 40.3877 19.276 39.951C18.6985 39.5142 17.9945 39.2774 17.2705 39.2762H9.28594V9.75609C9.28656 9.32356 9.45871 8.90892 9.76464 8.60315C10.0706 8.29737 10.4853 8.12541 10.9178 8.125H63.9697C64.4022 8.12541 64.8169 8.29737 65.1229 8.60315C65.4288 8.90892 65.6009 9.32356 65.6016 9.75609V39.4727H54.9786C54.3137 39.4737 53.6672 39.6914 53.137 40.0928C52.6069 40.4942 52.2216 41.057 52.0402 41.6967ZM77.3438 70.6947C77.3433 71.0077 77.2188 71.3078 76.9974 71.5291C76.776 71.7503 76.4758 71.8747 76.1628 71.875H54.9786C54.6656 71.8747 54.3654 71.7503 54.144 71.5291C53.9226 71.3078 53.7981 71.0077 53.7977 70.6947V42.528C53.7981 42.2149 53.9226 41.9149 54.144 41.6936C54.3654 41.4723 54.6656 41.3479 54.9786 41.3477H76.1628C76.4758 41.3479 76.776 41.4723 76.9974 41.6936C77.2188 41.9149 77.3433 42.2149 77.3438 42.528V70.6947Z" fill="#284268"/>
</svg>
