<svg width="82" height="80" viewBox="0 0 82 80" fill="none" xmlns="http://www.w3.org/2000/svg">
<path fill-rule="evenodd" clip-rule="evenodd" d="M56.6832 8.17273L52.892 18.96C54.8507 19.2038 56.8141 19.6415 58.7594 20.2824C60.7046 20.9233 62.5461 21.7404 64.2657 22.7061L68.0569 11.9189L56.6832 8.17273Z" fill="#EFF6FF"/>
<path fill-rule="evenodd" clip-rule="evenodd" d="M53.5057 2.40568L52.102 6.66645C51.7997 7.58713 52.3006 8.58919 53.2213 8.89157L55.9203 9.77627L67.2896 13.5226L69.9841 14.4117C70.9048 14.7141 71.9068 14.2085 72.2092 13.2878L73.6129 9.02708C73.9153 8.10639 73.4097 7.10434 72.489 6.80195L55.7308 1.28181C54.8101 0.97927 53.8082 1.48484 53.5057 2.40568Z" fill="#91A6BC"/>
<path fill-rule="evenodd" clip-rule="evenodd" d="M69.9841 14.4148C70.9048 14.7172 71.9069 14.2116 72.2092 13.2909L73.6129 9.03016C73.9153 8.10947 73.4097 7.10742 72.489 6.80503L68.3367 5.43738C69.2574 5.73976 69.7629 6.74182 69.4605 7.6625L68.0569 11.9233C67.7545 12.844 66.7525 13.3495 65.8318 13.0471H65.8409L67.2897 13.5256L69.9841 14.4148Z" fill="#73849B"/>
<path fill-rule="evenodd" clip-rule="evenodd" d="M39.9973 77.252C56.2049 82.5869 73.6672 73.7766 79.002 57.5731C83.7004 43.3149 77.4403 28.0819 64.8299 20.9912C63.1103 20.0253 61.2688 19.2084 59.3236 18.5675C57.3784 17.9266 55.4151 17.4887 53.4562 17.2451C46.6184 16.3921 39.8438 17.8815 34.1119 21.217C27.8158 24.8819 22.7788 30.781 20.3236 38.2464C14.9842 54.4498 23.7942 71.917 39.9973 77.252Z" fill="#91A6BC"/>
<path fill-rule="evenodd" clip-rule="evenodd" d="M57.1932 25.0489C44.5647 20.8875 30.957 27.757 26.7956 40.3858C22.6388 53.0146 29.5037 66.6228 42.132 70.7798C54.7604 74.9412 68.3682 68.0761 72.5296 55.4473L72.5431 55.4023C76.6729 42.787 69.8081 29.2014 57.1932 25.0489Z" fill="#EFF6FF"/>
<path fill-rule="evenodd" clip-rule="evenodd" d="M57.1932 25.0477L50.9195 44.0947C50.193 46.2972 51.592 48.3735 53.4515 49.1138L72.5431 55.4011C76.6728 42.7858 69.8081 29.2002 57.1932 25.0477Z" fill="#91A6BC"/>
<path fill-rule="evenodd" clip-rule="evenodd" d="M50.9196 44.095C48.8344 43.4089 46.5867 44.5418 45.9007 46.6271C45.2147 48.7124 46.3475 50.96 48.4327 51.6461C50.5178 52.3323 52.7656 51.1993 53.4515 49.114C54.1377 47.0287 53.0047 44.781 50.9196 44.095Z" fill="#FFEB3A"/>
<path fill-rule="evenodd" clip-rule="evenodd" d="M72.5432 55.4005C76.1629 44.3424 71.3336 32.5397 61.5937 26.9971C63.3043 32.1018 64.2476 37.7167 64.2476 43.6113C64.2476 46.6353 63.9994 49.5872 63.5255 52.4308L72.5432 55.4005Z" fill="#73849B"/>
<path fill-rule="evenodd" clip-rule="evenodd" d="M79.0018 57.5752C83.7003 43.317 77.4402 28.084 64.8297 20.9933C63.5661 20.2801 62.2345 19.6527 60.8444 19.1156C60.3435 18.9215 59.8379 18.7409 59.3234 18.5694C58.7187 18.3709 58.1139 18.1903 57.5045 18.0323C59.1384 20.7766 60.5194 23.787 61.5936 26.9962C71.3334 32.5388 76.1628 44.3417 72.5431 55.3996C72.5387 55.4132 72.5341 55.4267 72.5296 55.4447C69.9435 63.2892 63.7149 68.9085 56.34 71.0434C54.3587 74.0132 52.0659 76.631 49.5204 78.8111C62.5506 78.8744 74.7051 70.6238 79.0018 57.5752Z" fill="#73849B"/>
<path fill-rule="evenodd" clip-rule="evenodd" d="M56.3402 71.0428C63.7151 68.9079 69.9435 63.2886 72.5298 55.4441L72.5433 55.3991L63.5256 52.4292C62.6861 57.4798 61.1425 62.1964 59.0303 66.4075C58.2133 68.0323 57.3151 69.5804 56.3402 71.0428Z" fill="#D9EEFF"/>
<path fill-rule="evenodd" clip-rule="evenodd" d="M64.8299 20.9911L67.2897 13.5213L65.8319 13.0428L63.1374 12.1537L60.8446 19.1135C62.2347 19.6507 63.5661 20.2781 64.8299 20.9911Z" fill="#D9EEFF"/>
<path fill-rule="evenodd" clip-rule="evenodd" d="M53.4516 49.114C54.1375 47.0288 53.0047 44.7811 50.9196 44.0949C49.8319 43.7384 48.6991 43.8738 47.7647 44.3838C49.6919 45.16 50.7119 47.313 50.053 49.317C49.7236 50.31 49.0421 51.0908 48.1891 51.5603C48.2703 51.5918 48.3515 51.6189 48.4328 51.6461C50.5178 52.3321 52.7656 51.1991 53.4516 49.114Z" fill="#FF9801"/>
<path d="M78.309 33.4604C75.5509 27.9934 71.3885 23.5282 66.2676 20.4453L68.0499 15.0328L69.6116 15.5471C69.9135 15.6462 70.2241 15.6955 70.5334 15.6955C70.9908 15.6955 71.4457 15.5879 71.8667 15.3753C72.5734 15.0185 73.0979 14.4097 73.3434 13.6623L74.7476 9.40041C75.2563 7.85107 74.4105 6.17689 72.8624 5.66846L67.1438 3.78632C66.5174 3.58011 65.8426 3.92071 65.6362 4.5473C65.43 5.17372 65.7708 5.84871 66.3972 6.05492L72.1164 7.93737C72.4089 8.03323 72.5747 8.36221 72.4786 8.65424L71.0745 12.9161C71.0116 13.1077 70.8694 13.2034 70.7901 13.2432C70.7108 13.2833 70.5487 13.3408 70.3573 13.2782L53.5941 7.75792C53.4042 7.6955 53.3097 7.55458 53.2703 7.47608C53.2304 7.39646 53.1729 7.2342 53.2363 7.04105L54.6404 2.77917C54.7033 2.58777 54.8455 2.49191 54.9246 2.45211C55.0041 2.4123 55.166 2.3545 55.3571 2.41692L61.3011 4.37596C61.9274 4.58249 62.6025 4.24189 62.809 3.61562C63.0156 2.9892 62.675 2.31421 62.0487 2.10768L56.1034 0.148159C55.355 -0.0972195 54.5544 -0.0363923 53.8482 0.320131C53.1415 0.676973 52.617 1.28556 52.3716 2.033L50.9675 6.29488C50.4584 7.84486 51.3024 9.5192 52.8479 10.0268L54.4108 10.5415L52.6261 15.9511C50.1906 15.7226 47.7335 15.7771 45.2717 16.1185C44.6184 16.2089 44.1622 16.8119 44.2528 17.4651C44.3432 18.1184 44.9474 18.5756 45.5994 18.484C50.1062 17.8595 54.5974 18.2697 58.9495 19.7036C66.4854 22.1862 72.6033 27.4538 76.1764 34.5362C79.7494 41.6184 80.3499 49.6678 77.8672 57.2018C72.7471 72.7536 55.926 81.2399 40.3704 76.1198C32.8369 73.6393 26.7204 68.3725 23.1479 61.2891C19.5753 54.206 18.9748 46.1559 21.4574 38.6218C24.3894 29.714 31.4683 22.6384 40.3936 19.6948C41.0199 19.4882 41.3602 18.813 41.1536 18.1866C40.947 17.5605 40.2724 17.2204 39.6454 17.4266C37.6188 18.095 35.659 18.9694 33.8033 20.0251H24.2362C23.5767 20.0251 23.0421 20.5596 23.0421 21.2192C23.0421 21.8787 23.5767 22.4133 24.2362 22.4133H30.1922C29.1269 23.2241 28.1112 24.098 27.158 25.0339C23.8238 28.3086 21.2245 32.3375 19.5882 36.7428H11.238C10.5785 36.7428 10.0439 37.2774 10.0439 37.9369C10.0439 38.5965 10.5785 39.131 11.238 39.131H18.8053C17.4567 43.8505 17.2099 48.7274 18.0452 53.4563H5.28938C4.62984 53.4563 4.09529 53.9908 4.09529 54.6504C4.09529 55.3099 4.62984 55.8445 5.28938 55.8445H18.5632C19.1365 58.0745 19.954 60.2592 21.0157 62.3646C22.4812 65.2701 24.3437 67.8917 26.5348 70.1742H15.801C15.1415 70.1742 14.6069 70.7087 14.6069 71.3683C14.6069 72.0278 15.1415 72.5624 15.801 72.5624H29.0973C32.1641 75.12 35.7168 77.1018 39.6237 78.3881C42.9441 79.4811 46.3158 80.0002 49.635 80C63.1159 79.999 75.6969 71.4313 80.1358 57.9487C82.8183 49.8092 82.1694 41.1124 78.309 33.4604ZM55.035 16.2724L56.6792 11.2886L65.7813 14.286L64.1396 19.2714C62.7189 18.557 61.2355 17.9423 59.6971 17.4355C58.1578 16.9283 56.6021 16.542 55.035 16.2724Z" fill="#284268"/>
<path d="M1.43036 22.413H16.2795C16.939 22.413 17.4736 21.8784 17.4736 21.2189C17.4736 20.5593 16.939 20.0248 16.2795 20.0248H1.43036C0.770813 20.0248 0.236267 20.5593 0.236267 21.2189C0.236267 21.8784 0.770813 22.413 1.43036 22.413Z" fill="#284268"/>
<path d="M6.20561 28.3842C5.54607 28.3842 5.01152 28.9187 5.01152 29.5782C5.01152 30.2378 5.54607 30.7723 6.20561 30.7723H17.4304C18.09 30.7723 18.6245 30.2378 18.6245 29.5782C18.6245 28.9187 18.09 28.3842 17.4304 28.3842H6.20561Z" fill="#284268"/>
<path d="M11.0238 46.2911C11.0238 45.6316 10.4893 45.097 9.82975 45.097H1.43036C0.770813 45.097 0.236267 45.6316 0.236267 46.2911C0.236267 46.9507 0.770813 47.4852 1.43036 47.4852H9.82975C10.4893 47.4854 11.0238 46.9507 11.0238 46.2911Z" fill="#284268"/>
<path d="M15.7991 63.0084C15.7991 62.3489 15.2645 61.8143 14.605 61.8143H8.75572C8.09618 61.8143 7.56163 62.3489 7.56163 63.0084C7.56163 63.668 8.09602 64.2025 8.75572 64.2025H14.605C15.2645 64.2025 15.7991 63.668 15.7991 63.0084Z" fill="#284268"/>
<path d="M25.6614 40.0102C21.3049 53.2448 28.5261 67.5558 41.7583 71.9114C44.3585 72.7683 47.0306 73.1936 49.6911 73.1936C53.5893 73.1936 57.4622 72.2802 61.0438 70.4737C67.0695 67.4343 71.5514 62.2297 73.6638 55.8189C73.6672 55.8087 73.6704 55.7985 73.6735 55.7883L73.6829 55.7571C77.9999 42.5436 70.7737 28.2613 57.5693 23.9133C55.1361 23.1021 52.5692 22.6714 50.0053 22.6337C47.4282 22.5956 44.8488 22.9607 42.3826 23.7085C40.9713 24.1364 39.5979 24.6883 38.2814 25.3526C32.2558 28.3931 27.7739 33.5985 25.6614 40.0102ZM71.751 53.8816L54.827 48.3081C54.9093 47.3621 54.7292 46.4096 54.291 45.5407C53.8527 44.6716 53.1936 43.9606 52.3841 43.4649L57.9443 26.5836C68.8176 30.7973 74.8001 42.6261 71.751 53.8816ZM50.9291 50.3517C50.2656 50.6861 49.5118 50.7423 48.8059 50.5103C47.3499 50.0312 46.5556 48.4561 47.0349 46.9988C47.4193 45.8305 48.5096 45.0881 49.6784 45.0881C49.9655 45.0881 50.2575 45.133 50.5446 45.2273C50.5451 45.2274 50.5454 45.2276 50.5459 45.2278C50.5463 45.2279 50.5467 45.2279 50.5471 45.2281C51.2519 45.4602 51.824 45.9531 52.1584 46.616C52.4928 47.2789 52.5492 48.0327 52.3175 48.7382C52.3173 48.7385 52.3173 48.7387 52.3172 48.739C52.317 48.7393 52.317 48.7398 52.3169 48.7401C52.0849 49.4451 51.592 50.0173 50.9291 50.3517ZM49.6392 25.0203C51.6586 25.0203 53.6858 25.2922 55.6756 25.837L50.1153 42.7183C49.1691 42.6359 48.2166 42.816 47.3477 43.2544C47.0528 43.4031 46.7766 43.578 46.5201 43.7746L38.554 36.5131C38.0664 36.0688 37.3112 36.1037 36.8669 36.5911C36.4227 37.0785 36.4577 37.8338 36.9449 38.2782L45.0155 45.6348C44.9206 45.834 44.8364 46.0395 44.7663 46.2526C44.3348 47.564 44.4396 48.965 45.0612 50.1978C45.6832 51.4307 46.748 52.3476 48.0593 52.7789C48.4023 52.8918 48.7515 52.964 49.1019 53.0039L49.5077 56.4774C49.5787 57.0856 50.0946 57.5332 50.6922 57.5332C50.7385 57.5332 50.7853 57.5303 50.8323 57.5249C51.4874 57.4484 51.9563 56.8553 51.8798 56.2002L51.4728 52.7157C51.6528 52.6485 51.8304 52.5719 52.0044 52.4842C52.8735 52.0458 53.5845 51.3868 54.08 50.5769L71.0094 56.1521C69.1134 61.0798 65.6291 65.1386 61.0492 67.7588L59.7169 65.1168C59.4199 64.5278 58.7018 64.2912 58.1131 64.5883C57.5243 64.8851 57.2876 65.6033 57.5846 66.1921L58.9188 68.8379C54.0878 70.9814 48.7467 71.3831 43.6495 69.9874L44.5792 67.1655C44.7858 66.5392 44.4452 65.8641 43.8187 65.6577C43.1917 65.451 42.5172 65.7918 42.311 66.4182L41.381 69.2405C36.3192 67.2794 32.3189 63.6708 29.7949 59.2385L32.4285 57.9104C33.0173 57.6134 33.2539 56.8954 32.957 56.3066C32.6601 55.7176 31.9418 55.4806 31.3532 55.7781L28.7225 57.1048C26.6725 52.4415 26.1594 47.0851 27.5983 41.8549L30.3793 42.7724C30.5035 42.8135 30.6296 42.8329 30.7535 42.8329C31.2549 42.8329 31.7216 42.5146 31.8872 42.0125C32.0939 41.3863 31.7536 40.711 31.1274 40.5044L28.35 39.5882C30.2614 34.68 33.7512 30.6391 38.3314 28.0347L39.6397 30.6224C39.8498 31.0382 40.2702 31.2781 40.7064 31.2781C40.8876 31.2781 41.0715 31.2366 41.2442 31.1493C41.8328 30.8517 42.0688 30.1334 41.7711 29.5449L40.4658 26.9626C43.3941 25.6728 46.5071 25.0203 49.6392 25.0203Z" fill="#284268"/>
</svg>
