<svg id="Layer_1" enable-background="new 0 0 512 512" height="512" viewBox="0 0 512 512" width="512" xmlns="http://www.w3.org/2000/svg"><path fill="#6c757d" d="m345.379 256 162.228-162.228c5.858-5.858 5.858-15.355 0-21.213l-68.165-68.166c-5.858-5.858-15.355-5.858-21.213 0l-162.229 162.228-162.228-162.228c-5.858-5.858-15.355-5.858-21.213 0l-68.166 68.165c-5.858 5.858-5.858 15.355 0 21.213l162.228 162.229-162.228 162.227c-5.858 5.858-5.858 15.355 0 21.213l68.166 68.166c5.858 5.858 15.355 5.858 21.213 0l162.228-162.227 162.227 162.228c5.858 5.858 15.355 5.858 21.213 0l68.166-68.166c5.858-5.858 5.858-15.355 0-21.213z"/></svg>